<svg xmlns="http://www.w3.org/2000/svg" viewBox="0 0 823 644">
  <g fill="#F0F1F1" fill-rule="evenodd">
    <path d="M270 2.774l239.808 138.452a20 20 0 0110 17.321v276.906a20 20 0 01-10 17.32L270 591.227a20 20 0 01-20 0L10.192 452.774a20 20 0 01-10-17.321V158.547a20 20 0 0110-17.32L250 2.773a20 20 0 0120 0zm0 100a20 20 0 00-20 0L96.795 191.226a20 20 0 00-10 17.321v176.906a20 20 0 0010 17.32L250 491.227a20 20 0 0020 0l153.205-88.452a20 20 0 0010-17.321V208.547a20 20 0 00-10-17.32L270 102.773zM700.97 228.236l114.472 66.09a15 15 0 017.5 12.99v132.18a15 15 0 01-7.5 12.99l-114.471 66.09a15 15 0 01-15 0L571.5 452.486a15 15 0 01-7.5-12.99v-132.18a15 15 0 017.5-12.99l114.47-66.09a15 15 0 0115 0zm.473 49.962a15 15 0 00-14.944 0l-71.603 41.133a15 15 0 00-7.528 13.007v82.136a15 15 0 007.528 13.007l71.603 41.133a15 15 0 0014.944 0l71.602-41.133a15 15 0 007.528-13.007v-82.136a15 15 0 00-7.528-13.007l-71.602-41.133zM548.692 487.797l59.715 34.263a10 10 0 015.023 8.673v68.417a10 10 0 01-5.023 8.674l-59.715 34.262a10 10 0 01-9.954 0l-59.715-34.262A10 10 0 01474 599.15v-68.417a10 10 0 015.023-8.673l59.715-34.263a10 10 0 019.954 0zm-1.012 26.984a10 10 0 00-9.93 0l-36.332 20.78a10 10 0 00-5.035 8.681v41.4a10 10 0 005.035 8.68l36.332 20.78a10 10 0 009.93 0l36.332-20.78a10 10 0 005.035-8.68v-41.4a10 10 0 00-5.035-8.68l-36.332-20.78z"/>
  </g>
</svg>