<svg xmlns="http://www.w3.org/2000/svg" viewBox="0 0 259 295">
  <path d="M136.97 2.236l114.472 66.09a15 15 0 017.5 12.99v132.18a15 15 0 01-7.5 12.99l-114.471 66.09a15 15 0 01-15 0L7.5 226.486a15 15 0 01-7.5-12.99V81.316a15 15 0 017.5-12.99l114.47-66.09a15 15 0 0115 0zm.473 49.962a15 15 0 00-14.944 0L50.896 93.331a15 15 0 00-7.528 13.007v82.136a15 15 0 007.528 13.007l71.603 41.133a15 15 0 0014.944 0l71.602-41.133a15 15 0 007.528-13.007v-82.136a15 15 0 00-7.528-13.007l-71.602-41.133z" fill="#F0F1F1" fill-rule="evenodd"/>
</svg>