<svg xmlns="http://www.w3.org/2000/svg" viewBox="0 0 140 158">
  <path d="M74.692 1.797l59.715 34.263a10 10 0 015.023 8.673v68.417a10 10 0 01-5.023 8.674l-59.715 34.262a10 10 0 01-9.954 0L5.023 121.824A10 10 0 010 113.15V44.733a10 10 0 015.023-8.673L64.738 1.797a10 10 0 019.954 0zM73.68 28.781a10 10 0 00-9.93 0l-36.332 20.78a10 10 0 00-5.035 8.681v41.4a10 10 0 005.035 8.68l36.332 20.78a10 10 0 009.93 0l36.332-20.78a10 10 0 005.035-8.68v-41.4a10 10 0 00-5.035-8.68L73.68 28.782z" fill="#F0F1F1" fill-rule="evenodd"/>
</svg>