<?xml version="1.0" encoding="UTF-8"?>
<svg width="505px" height="526px" viewBox="0 0 505 526" version="1.1" xmlns="http://www.w3.org/2000/svg" xmlns:xlink="http://www.w3.org/1999/xlink">
    <!-- Generator: Sketch 55.2 (78181) - https://sketchapp.com -->
    <title>background group</title>
    <desc>Created with Sketch.</desc>
    <g id="Page-1" stroke="none" stroke-width="1" fill="none" fill-rule="evenodd">
        <g id="background-group" transform="translate(-10.000000, -1.000000)" fill="#E6ECF2">
            <path d="M80,128.886751 L134.951905,160.613249 C138.045916,162.399577 139.951905,165.700847 139.951905,169.273503 L139.951905,232.726497 C139.951905,236.299153 138.045916,239.600423 134.951905,241.386751 L80,273.113249 C76.9059892,274.899577 73.0940108,274.899577 70,273.113249 L15.0480947,241.386751 C11.9540839,239.600423 10.0480947,236.299153 10.0480947,232.726497 L10.0480947,169.273503 C10.0480947,165.700847 11.9540839,162.399577 15.0480947,160.613249 L70,128.886751 C73.0940108,127.100423 76.9059892,127.100423 80,128.886751 Z" id="Polygon"></path>
            <path d="M155,254.886751 L209.951905,286.613249 C213.045916,288.399577 214.951905,291.700847 214.951905,295.273503 L214.951905,358.726497 C214.951905,362.299153 213.045916,365.600423 209.951905,367.386751 L155,399.113249 C151.905989,400.899577 148.094011,400.899577 145,399.113249 L90.0480947,367.386751 C86.9540839,365.600423 85.0480947,362.299153 85.0480947,358.726497 L85.0480947,295.273503 C85.0480947,291.700847 86.9540839,288.399577 90.0480947,286.613249 L145,254.886751 C148.094011,253.100423 151.905989,253.100423 155,254.886751 Z" id="Polygon"></path>
            <path d="M455,254.886751 L509.951905,286.613249 C513.045916,288.399577 514.951905,291.700847 514.951905,295.273503 L514.951905,358.726497 C514.951905,362.299153 513.045916,365.600423 509.951905,367.386751 L455,399.113249 C451.905989,400.899577 448.094011,400.899577 445,399.113249 L390.048095,367.386751 C386.954084,365.600423 385.048095,362.299153 385.048095,358.726497 L385.048095,295.273503 C385.048095,291.700847 386.954084,288.399577 390.048095,286.613249 L445,254.886751 C448.094011,253.100423 451.905989,253.100423 455,254.886751 Z" id="Polygon"></path>
            <path d="M305,2.88675135 L359.951905,34.6132487 C363.045916,36.3995766 364.951905,39.7008468 364.951905,43.2735027 L364.951905,106.726497 C364.951905,110.299153 363.045916,113.600423 359.951905,115.386751 L305,147.113249 C301.905989,148.899577 298.094011,148.899577 295,147.113249 L240.048095,115.386751 C236.954084,113.600423 235.048095,110.299153 235.048095,106.726497 L235.048095,43.2735027 C235.048095,39.7008468 236.954084,36.3995766 240.048095,34.6132487 L295,2.88675135 C298.094011,1.1004234 301.905989,1.1004234 305,2.88675135 Z" id="Polygon"></path>
            <path d="M380,128.886751 L434.951905,160.613249 C438.045916,162.399577 439.951905,165.700847 439.951905,169.273503 L439.951905,232.726497 C439.951905,236.299153 438.045916,239.600423 434.951905,241.386751 L380,273.113249 C376.905989,274.899577 373.094011,274.899577 370,273.113249 L315.048095,241.386751 C311.954084,239.600423 310.048095,236.299153 310.048095,232.726497 L310.048095,169.273503 C310.048095,165.700847 311.954084,162.399577 315.048095,160.613249 L370,128.886751 C373.094011,127.100423 376.905989,127.100423 380,128.886751 Z" id="Polygon"></path>
            <path d="M230,128.886751 L284.951905,160.613249 C288.045916,162.399577 289.951905,165.700847 289.951905,169.273503 L289.951905,232.726497 C289.951905,236.299153 288.045916,239.600423 284.951905,241.386751 L230,273.113249 C226.905989,274.899577 223.094011,274.899577 220,273.113249 L165.048095,241.386751 C161.954084,239.600423 160.048095,236.299153 160.048095,232.726497 L160.048095,169.273503 C160.048095,165.700847 161.954084,162.399577 165.048095,160.613249 L220,128.886751 C223.094011,127.100423 226.905989,127.100423 230,128.886751 Z" id="Polygon"></path>
            <path d="M305,254.886751 L359.951905,286.613249 C363.045916,288.399577 364.951905,291.700847 364.951905,295.273503 L364.951905,358.726497 C364.951905,362.299153 363.045916,365.600423 359.951905,367.386751 L305,399.113249 C301.905989,400.899577 298.094011,400.899577 295,399.113249 L240.048095,367.386751 C236.954084,365.600423 235.048095,362.299153 235.048095,358.726497 L235.048095,295.273503 C235.048095,291.700847 236.954084,288.399577 240.048095,286.613249 L295,254.886751 C298.094011,253.100423 301.905989,253.100423 305,254.886751 Z" id="Polygon"></path>
            <path d="M380,380.886751 L434.951905,412.613249 C438.045916,414.399577 439.951905,417.700847 439.951905,421.273503 L439.951905,484.726497 C439.951905,488.299153 438.045916,491.600423 434.951905,493.386751 L380,525.113249 C376.905989,526.899577 373.094011,526.899577 370,525.113249 L315.048095,493.386751 C311.954084,491.600423 310.048095,488.299153 310.048095,484.726497 L310.048095,421.273503 C310.048095,417.700847 311.954084,414.399577 315.048095,412.613249 L370,380.886751 C373.094011,379.100423 376.905989,379.100423 380,380.886751 Z" id="Polygon"></path>
            <path d="M230,380.886751 L284.951905,412.613249 C288.045916,414.399577 289.951905,417.700847 289.951905,421.273503 L289.951905,484.726497 C289.951905,488.299153 288.045916,491.600423 284.951905,493.386751 L230,525.113249 C226.905989,526.899577 223.094011,526.899577 220,525.113249 L165.048095,493.386751 C161.954084,491.600423 160.048095,488.299153 160.048095,484.726497 L160.048095,421.273503 C160.048095,417.700847 161.954084,414.399577 165.048095,412.613249 L220,380.886751 C223.094011,379.100423 226.905989,379.100423 230,380.886751 Z" id="Polygon"></path>
        </g>
    </g>
</svg>