<?xml version="1.0" encoding="UTF-8"?>
<svg width="430px" height="400px" viewBox="0 0 430 400" version="1.1" xmlns="http://www.w3.org/2000/svg" xmlns:xlink="http://www.w3.org/1999/xlink">
    <!-- Generator: Sketch 55.2 (78181) - https://sketchapp.com -->
    <title>hexagon-cluster</title>
    <desc>Created with Sketch.</desc>
    <g id="Page-1" stroke="none" stroke-width="1" fill="none" fill-rule="evenodd">
        <g id="hexagon-cluster" transform="translate(215.000000, 200.000000) scale(1, -1) translate(-215.000000, -200.000000) " fill="#E6ECF2" fill-rule="nonzero">
            <path d="M145,127.886751 L199.951905,159.613249 C203.045916,161.399577 204.951905,164.700847 204.951905,168.273503 L204.951905,231.726497 C204.951905,235.299153 203.045916,238.600423 199.951905,240.386751 L145,272.113249 C141.905989,273.899577 138.094011,273.899577 135,272.113249 L80.0480947,240.386751 C76.9540839,238.600423 75.0480947,235.299153 75.0480947,231.726497 L75.0480947,168.273503 C75.0480947,164.700847 76.9540839,161.399577 80.0480947,159.613249 L135,127.886751 C138.094011,126.100423 141.905989,126.100423 145,127.886751 Z" id="Polygon"></path>
            <path d="M369.951905,253.433756 L424.90381,285.160254 C427.997821,286.946582 429.90381,290.247852 429.90381,293.820508 L429.90381,357.273502 C429.90381,360.846158 427.997821,364.147428 424.90381,365.933756 L369.951905,397.660254 C366.857894,399.446582 363.045916,399.446582 359.951905,397.660254 L305,365.933756 C301.905989,364.147428 300,360.846158 300,357.273502 L300,293.820508 C300,290.247852 301.905989,286.946582 305,285.160254 L359.951905,253.433756 C363.045916,251.647428 366.857894,251.647428 369.951905,253.433756 Z" id="Polygon"></path>
            <path d="M69.951905,253.433756 L124.90381,285.160254 C127.997821,286.946582 129.90381,290.247852 129.90381,293.820508 L129.90381,357.273502 C129.90381,360.846158 127.997821,364.147428 124.90381,365.933756 L69.951905,397.660254 C66.857894,399.446582 63.045916,399.446582 59.951905,397.660254 L5,365.933756 C1.905989,364.147428 0,360.846158 0,357.273502 L0,293.820508 C0,290.247852 1.905989,286.946582 5,285.160254 L59.951905,253.433756 C63.045916,251.647428 66.857894,251.647428 69.951905,253.433756 Z" id="Polygon"></path>
            <path d="M220,1.886751 L274.951905,33.613249 C278.045916,35.399577 279.951905,38.700847 279.951905,42.273503 L279.951905,105.726497 C279.951905,109.299153 278.045916,112.600423 274.951905,114.386751 L220,146.113249 C216.905989,147.899577 213.094011,147.899577 210,146.113249 L155.048095,114.386751 C151.954084,112.600423 150.048095,109.299153 150.048095,105.726497 L150.048095,42.273503 C150.048095,38.700847 151.954084,35.399577 155.048095,33.613249 L210,1.886751 C213.094011,0.100423 216.905989,0.100423 220,1.886751 Z" id="Polygon"></path>
            <path d="M295,127.886751 L349.951905,159.613249 C353.045916,161.399577 354.951905,164.700847 354.951905,168.273503 L354.951905,231.726497 C354.951905,235.299153 353.045916,238.600423 349.951905,240.386751 L295,272.113249 C291.905989,273.899577 288.094011,273.899577 285,272.113249 L230.048095,240.386751 C226.954084,238.600423 225.048095,235.299153 225.048095,231.726497 L225.048095,168.273503 C225.048095,164.700847 226.954084,161.399577 230.048095,159.613249 L285,127.886751 C288.094011,126.100423 291.905989,126.100423 295,127.886751 Z" id="Polygon"></path>
            <path d="M220,253.886751 L274.951905,285.613249 C278.045916,287.399577 279.951905,290.700847 279.951905,294.273503 L279.951905,357.726497 C279.951905,361.299153 278.045916,364.600423 274.951905,366.386751 L220,398.113249 C216.905989,399.899577 213.094011,399.899577 210,398.113249 L155.048095,366.386751 C151.954084,364.600423 150.048095,361.299153 150.048095,357.726497 L150.048095,294.273503 C150.048095,290.700847 151.954084,287.399577 155.048095,285.613249 L210,253.886751 C213.094011,252.100423 216.905989,252.100423 220,253.886751 Z" id="Polygon"></path>
        </g>
    </g>
</svg>