<?xml version="1.0" encoding="UTF-8"?>
<svg width="430px" height="400px" viewBox="0 0 430 400" version="1.1" xmlns="http://www.w3.org/2000/svg" xmlns:xlink="http://www.w3.org/1999/xlink">
    <!-- Generator: Sketch 55.2 (78181) - https://sketchapp.com -->
    <title>hexagon-cluster</title>
    <desc>Created with Sketch.</desc>
    <g id="Page-1" stroke="none" stroke-width="1" fill="none" fill-rule="evenodd">
        <g id="hexagon-cluster" transform="translate(215.000000, 200.000000) scale(-1, -1) translate(-215.000000, -200.000000) " fill="#F8F8F8" fill-rule="nonzero">
            <path d="M70.048095,127.339746 L125,159.066244 C128.094011,160.852572 130,164.153842 130,167.726498 L130,231.179492 C130,234.752148 128.094011,238.053418 125,239.839746 L70.048095,271.566244 C66.954084,273.352572 63.142106,273.352572 60.048095,271.566244 L5.09619,239.839746 C2.002179,238.053418 0.09619,234.752148 0.09619,231.179492 L0.09619,167.726498 C0.09619,164.153842 2.002179,160.852572 5.09619,159.066244 L60.048095,127.339746 C63.142106,125.553418 66.954084,125.553418 70.048095,127.339746 Z" id="Polygon"></path>
            <path d="M145,1.886751 L199.951905,33.613249 C203.045916,35.399577 204.951905,38.700847 204.951905,42.273503 L204.951905,105.726497 C204.951905,109.299153 203.045916,112.600423 199.951905,114.386751 L145,146.113249 C141.905989,147.899577 138.094011,147.899577 135,146.113249 L80.048095,114.386751 C76.954084,112.600423 75.048095,109.299153 75.048095,105.726497 L75.048095,42.273503 C75.048095,38.700847 76.954084,35.399577 80.048095,33.613249 L135,1.886751 C138.094011,0.100423 141.905989,0.100423 145,1.886751 Z" id="Polygon"></path>
            <path d="M294.951905,1.433756 L349.90381,33.160254 C352.997821,34.946582 354.90381,38.247852 354.90381,41.820508 L354.90381,105.273502 C354.90381,108.846158 352.997821,112.147428 349.90381,113.933756 L294.951905,145.660254 C291.857894,147.446582 288.045916,147.446582 284.951905,145.660254 L230,113.933756 C226.905989,112.147428 225,108.846158 225,105.273502 L225,41.820508 C225,38.247852 226.905989,34.946582 230,33.160254 L284.951905,1.433756 C288.045916,-0.352572 291.857894,-0.352572 294.951905,1.433756 Z" id="Polygon"></path>
            <path d="M220,127.886751 L274.951905,159.613249 C278.045916,161.399577 279.951905,164.700847 279.951905,168.273503 L279.951905,231.726497 C279.951905,235.299153 278.045916,238.600423 274.951905,240.386751 L220,272.113249 C216.905989,273.899577 213.094011,273.899577 210,272.113249 L155.048095,240.386751 C151.954084,238.600423 150.048095,235.299153 150.048095,231.726497 L150.048095,168.273503 C150.048095,164.700847 151.954084,161.399577 155.048095,159.613249 L210,127.886751 C213.094011,126.100423 216.905989,126.100423 220,127.886751 Z" id="Polygon"></path>
            <path d="M369.951905,127.433756 L424.90381,159.160254 C427.997821,160.946582 429.90381,164.247852 429.90381,167.820508 L429.90381,231.273502 C429.90381,234.846158 427.997821,238.147428 424.90381,239.933756 L369.951905,271.660254 C366.857894,273.446582 363.045916,273.446582 359.951905,271.660254 L305,239.933756 C301.905989,238.147428 300,234.846158 300,231.273502 L300,167.820508 C300,164.247852 301.905989,160.946582 305,159.160254 L359.951905,127.433756 C363.045916,125.647428 366.857894,125.647428 369.951905,127.433756 Z" id="Polygon"></path>
            <path d="M145,253.886751 L199.951905,285.613249 C203.045916,287.399577 204.951905,290.700847 204.951905,294.273503 L204.951905,357.726497 C204.951905,361.299153 203.045916,364.600423 199.951905,366.386751 L145,398.113249 C141.905989,399.899577 138.094011,399.899577 135,398.113249 L80.048095,366.386751 C76.954084,364.600423 75.048095,361.299153 75.048095,357.726497 L75.048095,294.273503 C75.048095,290.700847 76.954084,287.399577 80.048095,285.613249 L135,253.886751 C138.094011,252.100423 141.905989,252.100423 145,253.886751 Z" id="Polygon"></path>
        </g>
    </g>
</svg>