<?xml version="1.0" encoding="UTF-8"?>
<svg width="355px" height="274px" viewBox="0 0 355 274" version="1.1" xmlns="http://www.w3.org/2000/svg" xmlns:xlink="http://www.w3.org/1999/xlink">
    <!-- Generator: Sketch 55.2 (78181) - https://sketchapp.com -->
    <title>hexagon-cluster</title>
    <desc>Created with Sketch.</desc>
    <g id="Page-1" stroke="none" stroke-width="1" fill="none" fill-rule="evenodd">
        <g id="hexagon-cluster" fill="#E6ECF2" fill-rule="nonzero">
            <path d="M70,127.886751 L124.951905,159.613249 C128.045916,161.399577 129.951905,164.700847 129.951905,168.273503 L129.951905,231.726497 C129.951905,235.299153 128.045916,238.600423 124.951905,240.386751 L70,272.113249 C66.905989,273.899577 63.094011,273.899577 60,272.113249 L5.0480947,240.386751 C1.9540839,238.600423 0.0480947,235.299153 0.0480947,231.726497 L0.0480947,168.273503 C0.0480947,164.700847 1.9540839,161.399577 5.0480947,159.613249 L60,127.886751 C63.094011,126.100423 66.905989,126.100423 70,127.886751 Z" id="Polygon"></path>
            <path d="M295,1.886751 L349.951905,33.613249 C353.045916,35.399577 354.951905,38.700847 354.951905,42.273503 L354.951905,105.726497 C354.951905,109.299153 353.045916,112.600423 349.951905,114.386751 L295,146.113249 C291.905989,147.899577 288.094011,147.899577 285,146.113249 L230.048095,114.386751 C226.954084,112.600423 225.048095,109.299153 225.048095,105.726497 L225.048095,42.273503 C225.048095,38.700847 226.954084,35.399577 230.048095,33.613249 L285,1.886751 C288.094011,0.100423 291.905989,0.100423 295,1.886751 Z" id="Polygon"></path>
            <path d="M145,1.886751 L199.951905,33.613249 C203.045916,35.399577 204.951905,38.700847 204.951905,42.273503 L204.951905,105.726497 C204.951905,109.299153 203.045916,112.600423 199.951905,114.386751 L145,146.113249 C141.905989,147.899577 138.094011,147.899577 135,146.113249 L80.048095,114.386751 C76.954084,112.600423 75.048095,109.299153 75.048095,105.726497 L75.048095,42.273503 C75.048095,38.700847 76.954084,35.399577 80.048095,33.613249 L135,1.886751 C138.094011,0.100423 141.905989,0.100423 145,1.886751 Z" id="Polygon"></path>
            <path d="M220,127.886751 L274.951905,159.613249 C278.045916,161.399577 279.951905,164.700847 279.951905,168.273503 L279.951905,231.726497 C279.951905,235.299153 278.045916,238.600423 274.951905,240.386751 L220,272.113249 C216.905989,273.899577 213.094011,273.899577 210,272.113249 L155.048095,240.386751 C151.954084,238.600423 150.048095,235.299153 150.048095,231.726497 L150.048095,168.273503 C150.048095,164.700847 151.954084,161.399577 155.048095,159.613249 L210,127.886751 C213.094011,126.100423 216.905989,126.100423 220,127.886751 Z" id="Polygon"></path>
        </g>
    </g>
</svg>