<?xml version="1.0" encoding="utf-8"?>
<!-- Generator: Adobe Illustrator 25.4.1, SVG Export Plug-In . SVG Version: 6.00 Build 0)  -->
<svg version="1.1" id="Layer_1" xmlns="http://www.w3.org/2000/svg" xmlns:xlink="http://www.w3.org/1999/xlink" x="0px" y="0px"
	 viewBox="0 0 217.4 280.2" style="enable-background:new 0 0 217.4 280.2;" xml:space="preserve">
<style type="text/css">
	.st0{fill:#E4E1DE;}
	.st1{fill:#577590;}
</style>
<path class="st0" d="M3.3,277.4L2.9,277c-4.8-4.8-3.4-13,2.8-15.8c9.8-4.3,19.8-3.1,28.3-2.1c11,1.3,17,1.7,22.8-4
	c5.8-5.8,5.4-11.8,4-22.8c-1.4-11.7-3.2-26.4,9.8-39.3c12.9-12.9,27.5-11.2,39.3-9.8c11,1.3,17,1.7,22.8-4c5.8-5.8,5.4-11.8,4-22.8
	c-1.4-11.7-3.2-26.4,9.8-39.3c12.9-12.9,27.5-11.2,39.3-9.8c7.8,0.9,13.1,1.4,17.5-0.4c3.7-1.5,8-0.9,10.8,2l0.4,0.4
	c4.8,4.8,3.4,13-2.8,15.8c-9.8,4.3-19.8,3.1-28.3,2.1c-11-1.3-17-1.7-22.8,4c-5.8,5.8-5.4,11.8-4,22.8c1.4,11.7,3.2,26.4-9.8,39.3
	c-12.9,12.9-27.5,11.2-39.3,9.8c-11-1.3-17-1.7-22.8,4c-5.8,5.8-5.4,11.8-4,22.8c1.4,11.7,3.2,26.4-9.8,39.3
	c-12.9,12.9-27.5,11.2-39.3,9.8c-7.8-0.9-13.1-1.4-17.5,0.4C10.4,280.9,6.1,280.2,3.3,277.4z"/>
<circle class="st1" cx="71.4" cy="15" r="15"/>
</svg>
