<?xml version="1.0" encoding="utf-8"?>
<!-- Generator: Adobe Illustrator 25.4.1, SVG Export Plug-In . SVG Version: 6.00 Build 0)  -->
<svg version="1.1" id="Layer_1" xmlns="http://www.w3.org/2000/svg" xmlns:xlink="http://www.w3.org/1999/xlink" x="0px" y="0px"
	 viewBox="0 0 197.2 390.7" style="enable-background:new 0 0 197.2 390.7;" xml:space="preserve">
<style type="text/css">
	.st0{fill:#E4E1DE;}
</style>
<g>
	<g>
		<circle class="st0" cx="4.2" cy="192.4" r="4.2"/>
		<path class="st0" d="M17.7,178.9c1.6,1.6,1.6,4.3,0,6c-1.6,1.6-4.3,1.6-6,0c-1.6-1.6-1.6-4.3,0-6C13.3,177.3,16,177.3,17.7,178.9z
			"/>
		<circle class="st0" cx="25.1" cy="171.5" r="4.2"/>
		<circle class="st0" cx="35.6" cy="161" r="4.2"/>
		<circle class="st0" cx="46" cy="150.6" r="4.2"/>
		<path class="st0" d="M59.5,137.1c1.6,1.6,1.6,4.3,0,6c-1.6,1.6-4.3,1.6-6,0c-1.6-1.6-1.6-4.3,0-6
			C55.2,135.5,57.8,135.5,59.5,137.1z"/>
		<circle class="st0" cx="66.9" cy="129.7" r="4.2"/>
		<circle class="st0" cx="77.4" cy="119.2" r="4.2"/>
		<circle class="st0" cx="87.9" cy="108.8" r="4.2"/>
		<circle class="st0" cx="98.3" cy="98.3" r="4.2"/>
		<circle class="st0" cx="108.8" cy="87.9" r="4.2"/>
		<circle class="st0" cx="119.2" cy="77.4" r="4.2"/>
		<circle class="st0" cx="129.7" cy="66.9" r="4.2"/>
		<circle class="st0" cx="140.1" cy="56.5" r="4.2"/>
		<circle class="st0" cx="150.6" cy="46" r="4.2"/>
		<circle class="st0" cx="161" cy="35.6" r="4.2"/>
		<circle class="st0" cx="171.5" cy="25.1" r="4.2"/>
		<circle class="st0" cx="181.9" cy="14.7" r="4.2"/>
		<circle class="st0" cx="192.4" cy="4.2" r="4.2"/>
	</g>
	<g>
		<path class="st0" d="M16.5,198.7c1.6,1.6,1.6,4.3,0,6c-1.6,1.6-4.3,1.6-6,0c-1.6-1.6-1.6-4.3,0-6C12.1,197,14.8,197,16.5,198.7z"
			/>
		<circle class="st0" cx="23.9" cy="191.2" r="4.2"/>
		<circle class="st0" cx="34.4" cy="180.7" r="4.2"/>
		<circle class="st0" cx="44.8" cy="170.3" r="4.2"/>
		<circle class="st0" cx="55.3" cy="159.8" r="4.2"/>
		<circle class="st0" cx="65.8" cy="149.4" r="4.2"/>
		<path class="st0" d="M79.2,135.9c1.6,1.6,1.6,4.3,0,6c-1.6,1.6-4.3,1.6-6,0c-1.6-1.6-1.6-4.3,0-6
			C74.9,134.3,77.5,134.3,79.2,135.9z"/>
		<circle class="st0" cx="86.7" cy="128.5" r="4.2"/>
		<circle class="st0" cx="97.1" cy="118" r="4.2"/>
		<circle class="st0" cx="107.6" cy="107.6" r="4.2"/>
		<circle class="st0" cx="118" cy="97.1" r="4.2"/>
		<circle class="st0" cx="128.5" cy="86.7" r="4.2"/>
		<circle class="st0" cx="138.9" cy="76.2" r="4.2"/>
		<circle class="st0" cx="149.4" cy="65.8" r="4.2"/>
		<circle class="st0" cx="159.8" cy="55.3" r="4.2"/>
		<circle class="st0" cx="170.3" cy="44.8" r="4.2"/>
		<circle class="st0" cx="180.7" cy="34.4" r="4.2"/>
		<circle class="st0" cx="191.2" cy="23.9" r="4.2"/>
	</g>
	<g>
		<circle class="st0" cx="22.7" cy="210.9" r="4.2"/>
		<circle class="st0" cx="33.2" cy="200.5" r="4.2"/>
		<circle class="st0" cx="43.6" cy="190" r="4.2"/>
		<circle class="st0" cx="54.1" cy="179.5" r="4.2"/>
		<circle class="st0" cx="64.6" cy="169.1" r="4.2"/>
		<circle class="st0" cx="75" cy="158.6" r="4.2"/>
		<circle class="st0" cx="85.5" cy="148.2" r="4.2"/>
		<path class="st0" d="M98.9,134.7c1.6,1.6,1.6,4.3,0,6c-1.6,1.6-4.3,1.6-6,0c-1.6-1.6-1.6-4.3,0-6
			C94.6,133.1,97.3,133.1,98.9,134.7z"/>
		<circle class="st0" cx="106.4" cy="127.3" r="4.2"/>
		<circle class="st0" cx="116.8" cy="116.8" r="4.2"/>
		<circle class="st0" cx="127.3" cy="106.4" r="4.2"/>
		<circle class="st0" cx="137.7" cy="95.9" r="4.2"/>
		<circle class="st0" cx="148.2" cy="85.5" r="4.2"/>
		<circle class="st0" cx="158.6" cy="75" r="4.2"/>
		<circle class="st0" cx="169.1" cy="64.6" r="4.2"/>
		<circle class="st0" cx="179.5" cy="54.1" r="4.2"/>
		<circle class="st0" cx="190" cy="43.6" r="4.2"/>
		<path class="st0" d="M197,30.8v4.8C196,34.2,196,32.2,197,30.8z"/>
	</g>
	<g>
		<circle class="st0" cx="32" cy="220.2" r="4.2"/>
		<circle class="st0" cx="42.5" cy="209.7" r="4.2"/>
		<circle class="st0" cx="52.9" cy="199.3" r="4.2"/>
		<circle class="st0" cx="63.4" cy="188.8" r="4.2"/>
		<circle class="st0" cx="73.8" cy="178.4" r="4.2"/>
		<circle class="st0" cx="84.3" cy="167.9" r="4.2"/>
		<circle class="st0" cx="94.7" cy="157.4" r="4.2"/>
		<circle class="st0" cx="105.2" cy="147" r="4.2"/>
		<circle class="st0" cx="115.6" cy="136.5" r="4.2"/>
		<circle class="st0" cx="126.1" cy="126.1" r="4.2"/>
		<circle class="st0" cx="136.5" cy="115.6" r="4.2"/>
		<circle class="st0" cx="147" cy="105.2" r="4.2"/>
		<circle class="st0" cx="157.4" cy="94.7" r="4.2"/>
		<circle class="st0" cx="167.9" cy="84.3" r="4.2"/>
		<circle class="st0" cx="178.4" cy="73.8" r="4.2"/>
		<circle class="st0" cx="188.8" cy="63.4" r="4.2"/>
		<path class="st0" d="M197,49.3v7.1c-0.3-0.2-0.5-0.4-0.7-0.6c-1.6-1.7-1.6-4.3,0-6C196.5,49.7,196.7,49.5,197,49.3z"/>
	</g>
	<g>
		<circle class="st0" cx="41.3" cy="229.4" r="4.2"/>
		<circle class="st0" cx="51.7" cy="219" r="4.2"/>
		<circle class="st0" cx="62.2" cy="208.5" r="4.2"/>
		<circle class="st0" cx="72.6" cy="198.1" r="4.2"/>
		<circle class="st0" cx="83.1" cy="187.6" r="4.2"/>
		<circle class="st0" cx="93.5" cy="177.2" r="4.2"/>
		<circle class="st0" cx="104" cy="166.7" r="4.2"/>
		<circle class="st0" cx="114.4" cy="156.2" r="4.2"/>
		<circle class="st0" cx="124.9" cy="145.8" r="4.2"/>
		<circle class="st0" cx="135.3" cy="135.3" r="4.2"/>
		<circle class="st0" cx="145.8" cy="124.9" r="4.2"/>
		<circle class="st0" cx="156.2" cy="114.4" r="4.2"/>
		<circle class="st0" cx="166.7" cy="104" r="4.2"/>
		<circle class="st0" cx="177.2" cy="93.5" r="4.2"/>
		<circle class="st0" cx="187.6" cy="83.1" r="4.2"/>
		<path class="st0" d="M197,68.5v8.2c-0.7-0.2-1.4-0.5-1.9-1.1c-1.7-1.6-1.7-4.3,0-6C195.6,69.1,196.3,68.7,197,68.5z"/>
	</g>
	<g>
		<circle class="st0" cx="50.5" cy="238.7" r="4.2"/>
		<circle class="st0" cx="61" cy="228.2" r="4.2"/>
		<circle class="st0" cx="71.4" cy="217.8" r="4.2"/>
		<circle class="st0" cx="81.9" cy="207.3" r="4.2"/>
		<circle class="st0" cx="92.3" cy="196.9" r="4.2"/>
		<circle class="st0" cx="102.8" cy="186.4" r="4.2"/>
		<circle class="st0" cx="113.2" cy="176" r="4.2"/>
		<circle class="st0" cx="123.7" cy="165.5" r="4.2"/>
		<circle class="st0" cx="134.1" cy="155.1" r="4.2"/>
		<circle class="st0" cx="144.6" cy="144.6" r="4.2"/>
		<circle class="st0" cx="155.1" cy="134.1" r="4.2"/>
		<circle class="st0" cx="165.5" cy="123.7" r="4.2"/>
		<circle class="st0" cx="176" cy="113.2" r="4.2"/>
		<circle class="st0" cx="186.4" cy="102.8" r="4.2"/>
		<path class="st0" d="M197,88.1v8.4c-1.1,0-2.2-0.4-3.1-1.2c-1.6-1.6-1.6-4.3,0-6C194.7,88.5,195.9,88.1,197,88.1z"/>
	</g>
	<g>
		<circle class="st0" cx="59.8" cy="247.9" r="4.2"/>
		<circle class="st0" cx="70.2" cy="237.5" r="4.2"/>
		<circle class="st0" cx="80.7" cy="227" r="4.2"/>
		<circle class="st0" cx="91.1" cy="216.6" r="4.2"/>
		<circle class="st0" cx="101.6" cy="206.1" r="4.2"/>
		<circle class="st0" cx="112" cy="195.7" r="4.2"/>
		<circle class="st0" cx="122.5" cy="185.2" r="4.2"/>
		<circle class="st0" cx="133" cy="174.8" r="4.2"/>
		<circle class="st0" cx="143.4" cy="164.3" r="4.2"/>
		<circle class="st0" cx="153.9" cy="153.9" r="4.2"/>
		<circle class="st0" cx="164.3" cy="143.4" r="4.2"/>
		<circle class="st0" cx="174.8" cy="133" r="4.2"/>
		<circle class="st0" cx="185.2" cy="122.5" r="4.2"/>
		<path class="st0" d="M197,108v8c-1.5,0.5-3.1,0.1-4.3-1c-1.6-1.6-1.6-4.3,0-6C193.8,107.9,195.5,107.5,197,108z"/>
	</g>
	<g>
		<circle class="st0" cx="69" cy="257.2" r="4.2"/>
		<circle class="st0" cx="79.5" cy="246.7" r="4.2"/>
		<circle class="st0" cx="89.9" cy="236.3" r="4.2"/>
		<circle class="st0" cx="100.4" cy="225.8" r="4.2"/>
		<circle class="st0" cx="110.9" cy="215.4" r="4.2"/>
		<circle class="st0" cx="121.3" cy="204.9" r="4.2"/>
		<circle class="st0" cx="131.8" cy="194.5" r="4.2"/>
		<circle class="st0" cx="142.2" cy="184" r="4.2"/>
		<circle class="st0" cx="152.7" cy="173.6" r="4.2"/>
		<circle class="st0" cx="163.1" cy="163.1" r="4.2"/>
		<circle class="st0" cx="173.6" cy="152.7" r="4.2"/>
		<circle class="st0" cx="184" cy="142.2" r="4.2"/>
		<path class="st0" d="M197,128.4v6.8c-1.7,1.2-4,1.1-5.5-0.4c-1.6-1.6-1.6-4.3,0-6C193,127.3,195.3,127.1,197,128.4z"/>
	</g>
	<g>
		<circle class="st0" cx="78.3" cy="266.5" r="4.2"/>
		<circle class="st0" cx="88.7" cy="256" r="4.2"/>
		<circle class="st0" cx="99.2" cy="245.6" r="4.2"/>
		<circle class="st0" cx="109.7" cy="235.1" r="4.2"/>
		<circle class="st0" cx="120.1" cy="224.6" r="4.2"/>
		<circle class="st0" cx="130.6" cy="214.2" r="4.2"/>
		<circle class="st0" cx="141" cy="203.7" r="4.2"/>
		<circle class="st0" cx="151.5" cy="193.3" r="4.2"/>
		<path class="st0" d="M164.9,179.8c1.6,1.6,1.6,4.3,0,6c-1.6,1.6-4.3,1.6-6,0c-1.6-1.6-1.6-4.3,0-6
			C160.6,178.2,163.3,178.2,164.9,179.8z"/>
		<circle class="st0" cx="172.4" cy="172.4" r="4.2"/>
		<circle class="st0" cx="182.8" cy="161.9" r="4.2"/>
		<path class="st0" d="M197,149.4v4.1c-0.2,0.3-0.4,0.7-0.7,1c-1.6,1.6-4.3,1.6-6,0c-1.6-1.7-1.6-4.3,0-6c1.6-1.6,4.3-1.6,6,0
			C196.6,148.8,196.8,149.1,197,149.4z"/>
	</g>
	<g>
		<circle class="st0" cx="87.6" cy="275.7" r="4.2"/>
		<circle class="st0" cx="98" cy="265.3" r="4.2"/>
		<circle class="st0" cx="108.5" cy="254.8" r="4.2"/>
		<circle class="st0" cx="118.9" cy="244.4" r="4.2"/>
		<circle class="st0" cx="129.4" cy="233.9" r="4.2"/>
		<circle class="st0" cx="139.8" cy="223.5" r="4.2"/>
		<circle class="st0" cx="150.3" cy="213" r="4.2"/>
		<circle class="st0" cx="160.7" cy="202.5" r="4.2"/>
		<circle class="st0" cx="171.2" cy="192.1" r="4.2"/>
		<path class="st0" d="M184.6,178.6c1.6,1.6,1.6,4.3,0,6c-1.6,1.6-4.3,1.6-6,0c-1.6-1.6-1.6-4.3,0-6C180.3,177,183,177,184.6,178.6z
			"/>
		<circle class="st0" cx="192.1" cy="171.2" r="4.2"/>
	</g>
	<g>
		<circle class="st0" cx="96.8" cy="285" r="4.2"/>
		<circle class="st0" cx="107.3" cy="274.5" r="4.2"/>
		<circle class="st0" cx="117.7" cy="264.1" r="4.2"/>
		<circle class="st0" cx="128.2" cy="253.6" r="4.2"/>
		<circle class="st0" cx="138.6" cy="243.2" r="4.2"/>
		<circle class="st0" cx="149.1" cy="232.7" r="4.2"/>
		<circle class="st0" cx="159.5" cy="222.3" r="4.2"/>
		<circle class="st0" cx="170" cy="211.8" r="4.2"/>
		<circle class="st0" cx="180.4" cy="201.3" r="4.2"/>
		<circle class="st0" cx="190.9" cy="190.9" r="4.2"/>
	</g>
	<g>
		<circle class="st0" cx="106.1" cy="294.2" r="4.2"/>
		<circle class="st0" cx="116.5" cy="283.8" r="4.2"/>
		<circle class="st0" cx="127" cy="273.3" r="4.2"/>
		<circle class="st0" cx="137.4" cy="262.9" r="4.2"/>
		<circle class="st0" cx="147.9" cy="252.4" r="4.2"/>
		<circle class="st0" cx="158.3" cy="242" r="4.2"/>
		<circle class="st0" cx="168.8" cy="231.5" r="4.2"/>
		<circle class="st0" cx="179.2" cy="221.1" r="4.2"/>
		<circle class="st0" cx="189.7" cy="210.6" r="4.2"/>
		<path class="st0" d="M197,197.4v5.6C195.6,201.4,195.6,199,197,197.4z"/>
	</g>
	<g>
		<circle class="st0" cx="115.3" cy="303.5" r="4.2"/>
		<circle class="st0" cx="125.8" cy="293" r="4.2"/>
		<circle class="st0" cx="136.2" cy="282.6" r="4.2"/>
		<circle class="st0" cx="146.7" cy="272.1" r="4.2"/>
		<circle class="st0" cx="157.1" cy="261.7" r="4.2"/>
		<circle class="st0" cx="167.6" cy="251.2" r="4.2"/>
		<circle class="st0" cx="178.1" cy="240.8" r="4.2"/>
		<circle class="st0" cx="188.5" cy="230.3" r="4.2"/>
		<path class="st0" d="M197,216.1v7.5c-0.4-0.2-0.7-0.4-1-0.7c-1.6-1.7-1.6-4.3,0-6C196.3,216.6,196.6,216.3,197,216.1z"/>
	</g>
	<g>
		<circle class="st0" cx="124.6" cy="312.8" r="4.2"/>
		<circle class="st0" cx="135" cy="302.3" r="4.2"/>
		<circle class="st0" cx="145.5" cy="291.8" r="4.2"/>
		<circle class="st0" cx="156" cy="281.4" r="4.2"/>
		<circle class="st0" cx="166.4" cy="270.9" r="4.2"/>
		<circle class="st0" cx="176.9" cy="260.5" r="4.2"/>
		<circle class="st0" cx="187.3" cy="250" r="4.2"/>
		<path class="st0" d="M197,235.4v8.3c-0.8-0.1-1.6-0.5-2.2-1.2c-1.6-1.6-1.6-4.3,0-6C195.4,236,196.2,235.6,197,235.4z"/>
	</g>
	<g>
		<circle class="st0" cx="133.8" cy="322" r="4.2"/>
		<circle class="st0" cx="144.3" cy="311.6" r="4.2"/>
		<circle class="st0" cx="154.8" cy="301.1" r="4.2"/>
		<circle class="st0" cx="165.2" cy="290.7" r="4.2"/>
		<circle class="st0" cx="175.7" cy="280.2" r="4.2"/>
		<circle class="st0" cx="186.1" cy="269.7" r="4.2"/>
		<path class="st0" d="M197,255.1v8.4c-1.2,0.1-2.5-0.3-3.4-1.2c-1.7-1.6-1.7-4.3,0-6C194.5,255.4,195.8,255,197,255.1z"/>
	</g>
	<g>
		<circle class="st0" cx="143.1" cy="331.3" r="4.2"/>
		<circle class="st0" cx="153.6" cy="320.8" r="4.2"/>
		<circle class="st0" cx="164" cy="310.4" r="4.2"/>
		<circle class="st0" cx="174.5" cy="299.9" r="4.2"/>
		<circle class="st0" cx="184.9" cy="289.5" r="4.2"/>
		<path class="st0" d="M197,275.1v7.8c-1.5,0.6-3.3,0.3-4.6-0.9c-1.6-1.6-1.6-4.3,0-6C193.6,274.8,195.5,274.5,197,275.1z"/>
	</g>
	<g>
		<circle class="st0" cx="152.4" cy="340.5" r="4.2"/>
		<circle class="st0" cx="162.8" cy="330.1" r="4.2"/>
		<circle class="st0" cx="173.3" cy="319.6" r="4.2"/>
		<circle class="st0" cx="183.7" cy="309.2" r="4.2"/>
		<path class="st0" d="M197,295.6v6.3c-1.7,1.5-4.2,1.4-5.8-0.2c-1.6-1.6-1.6-4.3,0-6C192.8,294.1,195.3,294.1,197,295.6z"/>
	</g>
	<g>
		<circle class="st0" cx="161.6" cy="349.8" r="4.2"/>
		<circle class="st0" cx="172.1" cy="339.3" r="4.2"/>
		<circle class="st0" cx="182.5" cy="328.9" r="4.2"/>
		<circle class="st0" cx="193" cy="318.4" r="4.2"/>
	</g>
	<g>
		<circle class="st0" cx="170.9" cy="359" r="4.2"/>
		<circle class="st0" cx="181.3" cy="348.6" r="4.2"/>
		<circle class="st0" cx="191.8" cy="338.1" r="4.2"/>
	</g>
	<g>
		<circle class="st0" cx="180.1" cy="368.3" r="4.2"/>
		<circle class="st0" cx="190.6" cy="357.9" r="4.2"/>
		<path class="st0" d="M197,346.3v2.3C196.8,347.8,196.8,347,197,346.3z"/>
	</g>
	<g>
		<circle class="st0" cx="189.4" cy="377.6" r="4.2"/>
	</g>
	<g>
		<path class="st0" d="M197,382.9v7.8c-0.5-0.2-0.9-0.5-1.3-0.9c-1.6-1.7-1.6-4.3,0-6C196.1,383.5,196.5,383.2,197,382.9z"/>
	</g>
</g>
</svg>
