<?xml version="1.0" encoding="UTF-8"?>
<svg width="141px" height="110px" viewBox="0 0 141 110" version="1.1" xmlns="http://www.w3.org/2000/svg" xmlns:xlink="http://www.w3.org/1999/xlink">
    <!-- Generator: Sketch 55.2 (78181) - https://sketchapp.com -->
    <title>blob (1)</title>
    <desc>Created with Sketch.</desc>
    <g id="Page-1" stroke="none" stroke-width="1" fill="none" fill-rule="evenodd">
        <g id="blob-(1)" fill="#FF0066" fill-rule="nonzero">
            <path d="M82.2,26.4 C96.9,26.1 121.1,23.7 132.3,31.7 C143.4,39.8 141.4,58.3 133.6,72.5 C125.7,86.7 111.9,96.7 98.2,102 C84.4,107.3 70.7,108 56.5,108.7 C42.3,109.4 27.5,110.1 18.4,103.3 C9.2,96.5 5.7,82.2 3.2,68.8 C0.7,55.4 -0.8,43.1 0.8,29.8 C2.4,16.4 7.1,2.2 17,0.9 C26.9,-0.4 42,11.3 52.1,18.1 C62.2,24.9 67.4,26.7 82.2,26.4 Z" id="Path"></path>
        </g>
    </g>
</svg>