<?xml version="1.0" encoding="UTF-8"?>
<svg width="930px" height="1001px" viewBox="0 0 930 1001" version="1.1" xmlns="http://www.w3.org/2000/svg" xmlns:xlink="http://www.w3.org/1999/xlink">
    <!-- Generator: Sketch 55.2 (78181) - https://sketchapp.com -->
    <title>logo head</title>
    <desc>Created with Sketch.</desc>
    <g id="Page-1" stroke="none" stroke-width="1" fill="none" fill-rule="evenodd">
        <g id="longneck-logo">
            <g id="logo-head">
                <g id="Longneck-head-right" transform="translate(255.000000, 0.000000)">
                    <path d="M210,1001 L149.715888,987.85765 L94.6171546,920.573757 L149.715888,951.147006 L210,959.286879 L270.284112,951.147006 L325.382845,920.573757 L270.284112,987.85765 L210,1001 Z" id="Combined-Shape" fill="#8D99A6"></path>
                    <path d="M210,959.286879 L149.715888,951.147006 L76.4731797,911.120359 L67.1921711,856.017884 L77.7699148,800.862416 L125.80421,757.379702 L87.2981161,478.088357 L50.5698665,432.585443 L26.4533246,372.63611 L0.351466137,322.062265 L50.5698665,156.060598 L39.6689327,32.2974968 L50.5698665,15.4259355 L84.8789868,0 L118.601591,16.1487484 L134.927299,118.842426 L210,115.234615 L285.072701,118.842426 L301.398409,16.1487484 L335.121013,0 L369.430134,15.4259355 L380.331067,32.2974968 L369.430134,156.060598 L419.648534,322.062265 L393.546675,372.63611 L369.430134,432.585443 L332.701884,478.088357 L294.19579,757.379702 L342.230085,800.862416 L352.807829,856.017884 L343.52682,911.120359 L270.284112,951.147006 L210,959.286879 Z" id="Combined-Shape" fill="#FCCE56"></path>
                    <path d="M469.390117,368.745749 L481.571649,454.13546 L432.410957,492.518152 L380.620646,578.143134 L342.079579,800.862416 L294.19579,757.379702 L332.701884,478.088357 L369.430134,432.585443 L393.546675,372.63611 L419.648534,322.062265 L403.676097,269.420014 L471.275239,148.021128 L604.593605,115.234615 L675,131.988766 L671.978231,171.578087 L643.273366,247.765199 L551.416225,361.165558 L469.390117,368.745749 Z" id="Combined-Shape" fill="#8D99A6"></path>
                    <g id="eye" transform="translate(394.581648, 397.092194)">
                        <polygon id="Path-20" fill="#242424" points="78.861427 0.0551644956 86.9900013 57.0432651 11.7478474 21.5350443"></polygon>
                        <polygon id="Path-21" fill="#000000" points="86.9900013 57.0432651 37.8293094 95.4259571 11.7478474 21.5350443"></polygon>
                        <polygon id="Path-22" fill="#313131" points="37.8293094 95.4259571 9.09494702e-13 74.48306 11.7478474 21.5350443"></polygon>
                    </g>
                    <polygon id="nose" fill="#232323" points="265.217801 774.045623 296.404857 800.945246 254.020059 817.459476 243.613014 791.990635"></polygon>
                </g>
                <g id="Longneck-head-right" transform="translate(232.500000, 558.000000) scale(-1, 1) translate(-232.500000, -558.000000) translate(0.000000, 115.000000)">
                    <path d="M259.390117,253.745749 L271.571649,339.13546 L222.410957,377.518152 L170.620646,463.143134 L132.079579,685.862416 L84.1957896,642.379702 L122.701884,363.088357 L159.430134,317.585443 L183.546675,257.63611 L209.648534,207.062265 L193.676097,154.420014 L261.275239,33.021128 L394.593605,0.234614659 L465,16.9887664 L461.978231,56.5780873 L433.273366,132.765199 L341.416225,246.165558 L259.390117,253.745749 Z" id="Combined-Shape" fill="#8D99A6"></path>
                    <g id="eye" transform="translate(184.581648, 282.092194)">
                        <polygon id="Path-20" fill="#242424" points="78.861427 0.0551644956 86.9900013 57.0432651 11.7478474 21.5350443"></polygon>
                        <polygon id="Path-21" fill="#000000" points="86.9900013 57.0432651 37.8293094 95.4259571 11.7478474 21.5350443"></polygon>
                        <polygon id="Path-22" fill="#313131" points="37.8293094 95.4259571 9.09494702e-13 74.48306 11.7478474 21.5350443"></polygon>
                    </g>
                    <polygon id="nose" fill="#232323" points="55.2178007 659.045623 86.4048566 685.945246 44.0200594 702.459476 33.6130137 676.990635"></polygon>
                </g>
            </g>
        </g>
    </g>
</svg>