<svg xmlns="http://www.w3.org/2000/svg" xmlns:xlink="http://www.w3.org/1999/xlink" viewBox="0 0 426 50">
  <defs>
    <path d="M.854.545H6.98l10.65 26.006h.393L28.673.545H34.8V34h-4.803V9.791h-.31l-9.866 24.16h-3.986L5.967 9.775h-.31V34H.854V.545zM42.15 34V.545h20.974v4.346H47.197v10.193H62.03v4.329H47.197v10.242H63.32V34H42.15zm38.567 0h-10.83V.545H81.06c3.278 0 6.093.667 8.446 2.002 2.352 1.334 4.157 3.245 5.415 5.733 1.258 2.489 1.887 5.47 1.887 8.944 0 3.485-.635 6.48-1.904 8.984-1.268 2.505-3.1 4.43-5.496 5.775C87.012 33.328 84.115 34 80.718 34zm-5.782-4.41h5.505c2.548 0 4.666-.482 6.354-1.446 1.688-.964 2.951-2.363 3.79-4.198.838-1.835 1.258-4.076 1.258-6.722 0-2.625-.417-4.852-1.25-6.681-.833-1.83-2.072-3.218-3.716-4.166-1.645-.947-3.687-1.421-6.126-1.421h-5.815v24.633zM108.128.544V34h-5.048V.545h5.048zM118.305 34h-5.358L124.986.545h5.831L142.857 34h-5.358L128.04 6.622h-.26L118.304 34zm.898-13.1h17.38v4.246h-17.38V20.9z" id="a"/>
  </defs>
  <g fill="none" fill-rule="evenodd">
    <path class="background" fill="#313030" d="M0 0h275v50H0z"/>
    <path class="text-main" d="M11.466 42V8.545h7.073v27.623H32.88V42H11.466zm55.54-16.727c0 3.648-.69 6.752-2.067 9.31-1.378 2.56-3.25 4.512-5.62 5.857-2.368 1.345-5.028 2.017-7.98 2.017-2.972 0-5.64-.675-8.003-2.025-2.364-1.35-4.231-3.305-5.603-5.865-1.373-2.559-2.059-5.657-2.059-9.294 0-3.648.686-6.752 2.059-9.311 1.372-2.56 3.24-4.512 5.603-5.857 2.363-1.344 5.03-2.017 8.004-2.017 2.951 0 5.611.673 7.98 2.017 2.368 1.345 4.241 3.297 5.619 5.857 1.378 2.559 2.066 5.663 2.066 9.31zm-7.172 0c0-2.363-.351-4.356-1.053-5.979-.703-1.623-1.691-2.853-2.965-3.692-1.274-.838-2.766-1.258-4.476-1.258s-3.202.42-4.476 1.258c-1.274.839-2.262 2.07-2.965 3.692-.702 1.623-1.053 3.616-1.053 5.979s.35 4.356 1.053 5.978c.703 1.623 1.69 2.854 2.965 3.692 1.274.839 2.766 1.258 4.476 1.258s3.202-.42 4.476-1.258c1.274-.838 2.262-2.069 2.965-3.692.702-1.622 1.053-3.615 1.053-5.978zm40.38-16.728V42h-6.109L79.551 20.944h-.245V42h-7.073V8.545h6.207l14.44 21.04h.294V8.545h7.04zm28.7 20.877h-7.186v-5.325h14v4.214c0 2.94-.621 5.464-1.863 7.571a12.62 12.62 0 01-5.129 4.868c-2.178 1.138-4.672 1.707-7.481 1.707-3.137 0-5.892-.694-8.266-2.082-2.374-1.389-4.223-3.365-5.546-5.93-1.323-2.565-1.985-5.611-1.985-9.14 0-2.711.395-5.132 1.185-7.26.79-2.13 1.897-3.935 3.324-5.416a14.4 14.4 0 014.982-3.381c1.895-.773 3.948-1.16 6.159-1.16 1.894 0 3.659.275 5.292.825 1.634.55 3.085 1.326 4.354 2.328a12.657 12.657 0 013.111 3.569c.806 1.378 1.324 2.894 1.552 4.55h-7.187a7.453 7.453 0 00-.964-2.116 6.179 6.179 0 00-1.511-1.568 6.745 6.745 0 00-2.026-.989c-.756-.228-1.592-.343-2.507-.343-1.71 0-3.21.425-4.5 1.275-1.29.849-2.296 2.082-3.014 3.7-.719 1.617-1.078 3.59-1.078 5.921 0 2.33.354 4.313 1.061 5.946.708 1.634 1.71 2.878 3.006 3.733 1.296.855 2.826 1.282 4.59 1.282 1.601 0 2.97-.286 4.109-.858 1.138-.571 2.009-1.38 2.613-2.425.574-.994.876-2.159.905-3.496zm40.105-20.877V42h-6.11l-14.554-21.056h-.245V42h-7.073V8.545h6.207l14.44 21.04h.294V8.545h7.04zM174.85 42V8.545h22.543v5.832h-15.47v7.972h14.31v5.831h-14.31v7.988h15.535V42H174.85zm57.697-21.742h-7.155c-.131-.926-.398-1.75-.8-2.475a6.31 6.31 0 00-1.553-1.854 6.846 6.846 0 00-2.18-1.176 8.448 8.448 0 00-2.671-.409c-1.732 0-3.24.428-4.525 1.283-1.285.855-2.281 2.096-2.99 3.724-.707 1.628-1.061 3.602-1.061 5.922 0 2.385.357 4.388 1.07 6.011.713 1.623 1.712 2.848 2.997 3.676 1.285.827 2.772 1.241 4.46 1.241.947 0 1.827-.125 2.638-.376a6.83 6.83 0 002.164-1.102 6.311 6.311 0 001.577-1.773c.419-.697.71-1.492.874-2.385l7.155.033a12.967 12.967 0 01-1.38 4.435 13.396 13.396 0 01-2.957 3.806c-1.237 1.116-2.707 1.998-4.411 2.646-1.704.648-3.63.972-5.774.972-2.984 0-5.65-.675-7.997-2.025-2.346-1.35-4.198-3.305-5.554-5.865-1.355-2.559-2.033-5.657-2.033-9.294 0-3.648.686-6.752 2.058-9.311 1.372-2.56 3.234-4.512 5.587-5.857 2.352-1.344 4.998-2.017 7.939-2.017 1.938 0 3.738.272 5.398.817 1.661.544 3.134 1.337 4.419 2.377a12.466 12.466 0 013.145 3.814c.81 1.503 1.33 3.223 1.56 5.162zM237.627 42V8.545h7.073v14.751h.441l12.039-14.75h8.478l-12.415 14.979L265.805 42h-8.462l-9.164-13.754-3.48 4.247V42h-7.072z" fill="#FFF" fill-rule="nonzero"/>
    <g class="text-secondary" fill-rule="nonzero">
      <g transform="translate(283 8)">
        <use fill="#FFF" xlink:href="#a"/>
        <use fill="#313030" xlink:href="#a"/>
      </g>
    </g>
  </g>
</svg>
