<?xml version="1.0" encoding="UTF-8"?>
<svg width="3903px" height="1137px" viewBox="0 0 3903 1137" version="1.1" xmlns="http://www.w3.org/2000/svg" xmlns:xlink="http://www.w3.org/1999/xlink">
    <!-- Generator: Sketch 55.2 (78181) - https://sketchapp.com -->
    <title>gray-head</title>
    <desc>Created with Sketch.</desc>
    <g id="Page-1" stroke="none" stroke-width="1" fill="none" fill-rule="evenodd">
        <g id="gray-head" transform="translate(0.000000, -17.000000)">
            <text id="Longneck-Media" font-family="Montserrat-ExtraBold, Montserrat ExtraBold" font-size="500" font-weight="700" line-spacing="300" fill="#292828">
                <tspan x="900" y="484">LONGNECK </tspan>
                <tspan x="1088.4" y="1005.19751" font-family="Montserrat-Bold, Montserrat" font-size="300" font-weight="bold">MEDIA</tspan>
            </text>
            <g id="head" transform="translate(0.000000, 17.000000)">
                <polygon id="lip" fill="#D8D8D8" points="351 1068 362.97464 1111.98689 449.657104 1137 535.928571 1111.98689 548 1068 449.657104 1107.31376"></polygon>
                <polygon id="neus-voorkan" fill="#D8D8D8" points="449.603214 979.796569 416.68451 967.483573 386.419028 918.045918 323 1013.4224 350.736829 1060.67429 449.603214 1100 548.364901 1060.67429 576 1013.4224 512.801607 918 481.749068 967.483573"></polygon>
                <polygon id="Path-7" fill="#D8D8D8" points="450.019558 543 436.648421 551.67466 420.490378 618.444587 391 913.118045 419.980203 961.068702 449.980756 973 480.019952 961.068702 509 913.118045 480.019952 618.444587 463.351823 551.67466"></polygon>
                <polygon id="nose-side" fill="#D8D8D8" points="415 629 385.269881 911.046071 323.852007 1003 299 704.959366"></polygon>
                <polygon id="nose-side-2" fill="#D8D8D8" points="601 629 571.78246 911.046071 511.423497 1003 487 705.763723"></polygon>
                <polygon id="Path" fill="#D8D8D8" points="652 279.542227 722.974823 168.177871 797.451068 117.659015 900 102 860.951641 269.830378 779.061224 378.936463 722.974823 395"></polygon>
                <polygon id="Path" fill="#D8D8D8" points="530.738474 200.439808 526 180.293253 552.100506 107.207275 567.449642 24.30873 608.183605 0 640 16.1614907 632.31237 205.316433 618.382991 250 579.797599 244.394806"></polygon>
                <polygon id="Path" fill="#D8D8D8" points="652 279.542227 722.974823 168.177871 797.451068 117.659015 900 102 860.951641 269.830378 779.061224 378.936463 722.974823 395"></polygon>
                <polygon id="Path" fill="#D8D8D8" transform="translate(124.000000, 249.500000) scale(-1, 1) translate(-124.000000, -249.500000) " points="0 280.542227 70.9748226 169.177871 145.451068 118.659015 248 103 208.951641 270.830378 127.061224 379.936463 70.9748226 396"></polygon>
                <polygon id="Path" fill="#D8D8D8" points="530.904736 200.439808 526 180.293253 553.016314 107.207275 568.904015 24.30873 611.06724 0 644 16.1614907 636.042628 205.316433 621.624499 250 581.685234 244.394806"></polygon>
                <polygon id="Path" fill="#D8D8D8" transform="translate(314.000000, 125.000000) scale(1, -1) rotate(-180.000000) translate(-314.000000, -125.000000) " points="258.987867 200.439808 254 180.293253 281.474217 107.207275 297.631202 24.30873 340.509058 0 374 16.1614907 365.907758 205.316433 351.245253 250 310.629051 244.394806"></polygon>
                <path d="M449.5,534.841805 L429.639292,547.414195 L411.327561,623.235266 L295.78067,701 L237.542572,586.842756 L204.199432,521.080014 L194.808219,445.183839 L183.817922,432.262596 L180,401.360657 L252.589814,282.790884 L278.24686,291.616468 L278.24686,256.902567 L320.77027,250.853162 L373.959736,203.67073 L379.432181,183 L449.5,203.67073 L519.567819,183 L525.040264,203.67073 L578.22973,250.853162 L620.75314,256.902567 L620.75314,291.616468 L646.410186,282.790884 L719,401.360657 L715.182078,432.262596 L704.191781,445.183839 L694.800568,521.080014 L661.457428,586.842756 L603.21933,701 L487.672439,623.235266 L469.360708,547.414195 L449.5,534.841805 Z" id="Combined-Shape" fill="#D8D8D8"></path>
                <g id="eye" transform="translate(196.000000, 439.000000)">
                    <polygon id="eye-back" fill="#363636" transform="translate(37.009894, 43.015737) rotate(2.000000) translate(-37.009894, -43.015737) " points="2.41500254 8.48565539 28.9394298 1.29419113 67.6257006 25.915705 71.6047857 70.2001404 29.0064363 84.7372837 10.7289557 64.9219427"></polygon>
                    <polygon id="eye-lower" fill="#545454" transform="translate(40.734699, 55.464071) rotate(2.000000) translate(-40.734699, -55.464071) " points="10.2967842 65.0595197 67.1935291 26.053282 71.1726141 70.3377174 28.5742647 84.8748607"></polygon>
                </g>
                <g id="eye" transform="translate(629.000000, 439.000000)">
                    <polygon id="eye-back" fill="#363636" transform="translate(37.484767, 43.027596) scale(-1, 1) rotate(2.000000) translate(-37.484767, -43.027596) " points="1.4950208 8.53435756 29.1337375 1.30398145 69.3941915 25.8705237 73.4745131 70.1514238 29.082268 84.7512113 10.0729502 64.9614266"></polygon>
                    <polygon id="eye-lower" fill="#545454" transform="translate(33.627095, 55.453068) scale(-1, 1) rotate(2.000000) translate(-33.627095, -55.453068) " points="1.9263135 65.1036267 61.2475549 26.0127237 65.3278764 70.2936239 20.9356313 84.8934113"></polygon>
                </g>
            </g>
        </g>
    </g>
</svg>