<svg xmlns="http://www.w3.org/2000/svg" xmlns:xlink="http://www.w3.org/1999/xlink" viewBox="0 0 1342.93 308.73"><defs><linearGradient id="linear-gradient" x1="186.19" y1="-28.38" x2="63.44" y2="253.61" gradientUnits="userSpaceOnUse"><stop offset="0.02" stop-color="#fad899"/><stop offset="0.28" stop-color="#f58c81"/><stop offset="0.51" stop-color="#f14e6e"/><stop offset="0.68" stop-color="#ee2862"/><stop offset="0.77" stop-color="#ed1a5e"/></linearGradient><linearGradient id="linear-gradient-2" x1="36.34" y1="123.99" x2="178.76" y2="307.52" gradientUnits="userSpaceOnUse"><stop offset="0.05" stop-color="#5ecae7"/><stop offset="0.19" stop-color="#5cc4e4"/><stop offset="0.38" stop-color="#58b5db"/><stop offset="0.59" stop-color="#509bcc"/><stop offset="0.82" stop-color="#4577b8"/><stop offset="1" stop-color="#3b53a4"/></linearGradient><linearGradient id="linear-gradient-3" x1="48.34" y1="143.82" x2="117.21" y2="221.15" gradientUnits="userSpaceOnUse"><stop offset="0" stop-color="#fff" stop-opacity="0"/><stop offset="0.05" stop-color="#fff" stop-opacity="0.02"/><stop offset="0.12" stop-color="#fff" stop-opacity="0.07"/><stop offset="0.18" stop-color="#fff" stop-opacity="0.16"/><stop offset="0.25" stop-color="#fff" stop-opacity="0.29"/><stop offset="0.32" stop-color="#fff" stop-opacity="0.46"/><stop offset="0.39" stop-color="#fff" stop-opacity="0.66"/><stop offset="0.47" stop-color="#fff" stop-opacity="0.89"/><stop offset="0.5" stop-color="#fff"/><stop offset="0.94" stop-color="#fff" stop-opacity="0.12"/><stop offset="1" stop-color="#fff" stop-opacity="0"/></linearGradient></defs><g id="Layer_2" data-name="Layer 2"><g id="Layer_1-2" data-name="Layer 1"><path d="M225.61,20.9,141,187.39l-3.84,7.55-6.47,12.74L107,254.4h-.11a82.12,82.12,0,0,1-43.7-18.92,1,1,0,0,1-.2-.16A82.55,82.55,0,0,1,34.3,181.48c0-.21,0-.44-.07-.66l14.47-28.6h0L55.4,139,125.73,0h87A14.39,14.39,0,0,1,225.61,20.9Z" style="fill:url(#linear-gradient)"/><path d="M137.19,194.94l-6.47,12.74c-28.07,0-85.32-1.63-75.32-68.67C52.84,203.85,137.19,194.94,137.19,194.94Z" style="opacity:0.22"/><path d="M255.05,207.72l-26.43,50.66-25.18,48.24L46.72,306.3c-33.85-.3-56-34.95-42.93-65.44.43-1,44.92-88.65,51.61-101.85-10,67,47.26,68.66,75.32,68.66Z" style="fill:url(#linear-gradient-2)"/><path d="M55.54,139a101.47,101.47,0,0,0-1.08,15.17,63.61,63.61,0,0,0,1.77,15.06,46.49,46.49,0,0,0,5.9,13.89,42.22,42.22,0,0,0,10.31,11c8.11,6.13,18,9.36,27.94,11.2s20.19,2.2,30.34,2.21v.29c-5.09.55-10.19.72-15.32.81A111,111,0,0,1,100,207.54a77.81,77.81,0,0,1-15.2-3.69,54.79,54.79,0,0,1-14.06-7.42,44.53,44.53,0,0,1-10.87-11.82A46.42,46.42,0,0,1,54,169.8c-2.21-10.38-1.1-20.91,1.22-30.81Z" style="fill:url(#linear-gradient-3)"/><path d="M320,180.57h29.16V282.81h63.18v23.76H320Z" style="fill:#231f20"/><path d="M446.8,300.27A62.79,62.79,0,0,1,422.14,277a67,67,0,0,1,0-66.78,62.79,62.79,0,0,1,24.66-23.31q15.75-8.46,35.37-8.46t35.28,8.46a64.26,64.26,0,0,1,0,113.4q-15.66,8.46-35.28,8.46T446.8,300.27Zm55.53-21.51a36.81,36.81,0,0,0,14.13-14.31,45.06,45.06,0,0,0,0-41.76,36.81,36.81,0,0,0-14.13-14.31,42.18,42.18,0,0,0-40.32,0,36.81,36.81,0,0,0-14.13,14.31,45.06,45.06,0,0,0,0,41.76A36.81,36.81,0,0,0,462,278.76a42.18,42.18,0,0,0,40.32,0Z" style="fill:#231f20"/><path d="M683.23,180.57v126H659.29l-62.82-76.5v76.5h-28.8v-126h24.12l62.64,76.5v-76.5Z" style="fill:#231f20"/><path d="M792.85,241.59h26.64v51.12a76.11,76.11,0,0,1-23.76,11.88,92.25,92.25,0,0,1-27.18,4.14q-19.62,0-35.28-8.37a62.31,62.31,0,0,1-24.57-23.22,67.7,67.7,0,0,1,0-67.14,62,62,0,0,1,24.75-23.22q15.84-8.37,35.64-8.37A78,78,0,0,1,799.15,184a59.56,59.56,0,0,1,22.68,16.2l-18.72,17.28q-13.5-14.22-32.58-14.22a44.47,44.47,0,0,0-21.42,5,36.16,36.16,0,0,0-14.58,14.22,44.73,44.73,0,0,0,0,41.94A36.92,36.92,0,0,0,749,278.76a43,43,0,0,0,21.15,5.13,47.26,47.26,0,0,0,22.68-5.4Z" style="fill:#231f20"/><path d="M956.65,180.57v126H932.71l-62.82-76.5v76.5h-28.8v-126h24.12l62.64,76.5v-76.5Z" style="fill:#231f20"/><path d="M1078.69,283.17v23.4H981.13v-126h95.22V204h-66.24v27.36h58.5V254h-58.5v29.16Z" style="fill:#231f20"/><path d="M1121.62,300.36a62.47,62.47,0,0,1-24.48-23.22,67.7,67.7,0,0,1,0-67.14,62.47,62.47,0,0,1,24.48-23.22q15.57-8.37,35-8.37a73.43,73.43,0,0,1,29.61,5.76,59.31,59.31,0,0,1,22.23,16.56L1189.75,218q-12.78-14.76-31.68-14.76a42.07,42.07,0,0,0-20.88,5.13,36.47,36.47,0,0,0-14.31,14.31,45.06,45.06,0,0,0,0,41.76,36.47,36.47,0,0,0,14.31,14.31,42.07,42.07,0,0,0,20.88,5.13q18.9,0,31.68-14.94l18.72,17.28A58.35,58.35,0,0,1,1186.15,303a74.08,74.08,0,0,1-29.7,5.76A72.37,72.37,0,0,1,1121.62,300.36Z" style="fill:#231f20"/><path d="M1268.59,257.07l-16.92,17.64v31.86h-29v-126h29v58.86l55.8-58.86h32.4l-52.2,56.16,55.26,69.84h-34Z" style="fill:#231f20"/></g></g></svg>