<svg xmlns="http://www.w3.org/2000/svg" xmlns:xlink="http://www.w3.org/1999/xlink" viewBox="0 0 265.99 257.71"><defs><linearGradient id="a" x1="122.7" y1="260.42" x2="32.41" y2="29.82" gradientUnits="userSpaceOnUse"><stop offset="0.05" stop-color="#0b3cb7"/><stop offset="0.28" stop-color="#1043c4"/><stop offset="0.72" stop-color="#1f57e7"/><stop offset="0.99" stop-color="#2965ff"/></linearGradient><linearGradient id="b" x1="188.43" y1="216.28" x2="129.93" y2="66.86" xlink:href="#a"/><linearGradient id="c" x1="186.33" y1="252.96" x2="173.14" y2="219.25" xlink:href="#a"/></defs><path d="M130.63,257.32l19.08-36.65H56a21,21,0,0,1-5.57-.74A17.63,17.63,0,0,1,44.64,217,18.57,18.57,0,0,1,40,212a18.26,18.26,0,0,1-1.39-17.76l.08-.15,89.54-167A18.4,18.4,0,0,0,95.86,9.67L5.4,177.93a55.75,55.75,0,0,0,50.47,79.78h.49Z" style="fill:url(#a)"/><path d="M166.53,108.34a8.64,8.64,0,0,0-7.88-12.24,8.63,8.63,0,0,0-7.55,4.53L96.83,204H62a4.32,4.32,0,0,1-3.59-1.81,4.09,4.09,0,0,1-.26-4.32c53.22-101.27,60-114.27,61-116h0A45.92,45.92,0,0,1,158.28,59h.46a44.77,44.77,0,0,1,20.13,4.67,47.33,47.33,0,0,1,9.07,5.88l1.52,1.26L191,69.51A46,46,0,0,1,219.78,59h.46A45.85,45.85,0,0,1,266,104.3h0a44.91,44.91,0,0,1-2.47,15.35L219.93,204H178.22L228,108.37a8.62,8.62,0,0,0-15.39-7.74L158.36,204H116.25Z" style="fill:url(#b)"/><path d="M168.38,257.11a39.34,39.34,0,0,0,34.83-21.2l8-15.24H169.52l-19,36.55Z" style="fill:url(#c)"/></svg>