<svg xmlns="http://www.w3.org/2000/svg" viewBox="0 0 722.2 112.28"><path d="M7.5,0A7.25,7.25,0,0,0,2.21,2.21,7.25,7.25,0,0,0,0,7.51V80.46a7.23,7.23,0,0,0,2.21,5.29A7.25,7.25,0,0,0,7.5,88a7.25,7.25,0,0,0,5.3-2.21A7.25,7.25,0,0,0,15,80.46V7.51a7.25,7.25,0,0,0-2.21-5.3A7.25,7.25,0,0,0,7.5,0Z"/><path d="M56.29,24.32H50.21c-17.09,0-25.75,8.66-25.75,25.74V62.22C24.46,79.3,33.12,88,50.21,88h6.08C73.37,88,82,79.3,82,62.22V50.06C82,33,73.37,24.32,56.29,24.32ZM39.47,50.06c0-7.32,3.41-10.73,10.74-10.73h6.08C63.61,39.33,67,42.74,67,50.06V62.22C67,69.54,63.61,73,56.29,73H50.21c-7.33,0-10.74-3.41-10.74-10.73Z"/><path d="M123.3,24.32h-6.08c-17.08,0-25.74,8.66-25.74,25.74v30.4a7.51,7.51,0,0,0,15,0V50.06c0-7.32,3.41-10.73,10.73-10.73h6.08c7.33,0,10.74,3.41,10.74,10.73v30.4a7.51,7.51,0,0,0,15,0V50.06C149.05,33,140.39,24.32,123.3,24.32Z"/><path d="M190.32,24.32h-6.08c-17.08,0-25.74,8.66-25.74,25.74V62.22C158.5,79.3,167.16,88,184.24,88H201c-.43,6.34-3.86,9.31-10.69,9.31H178.16a7.51,7.51,0,1,0,0,15h12.16c17.08,0,25.75-8.66,25.75-25.74V50.06C216.07,33,207.4,24.32,190.32,24.32ZM173.51,50.06c0-7.32,3.41-10.73,10.73-10.73h6.08c7.33,0,10.74,3.41,10.74,10.73V73H184.24c-7.32,0-10.73-3.41-10.73-10.73Z"/><path d="M257.34,24.32h-6.08c-17.08,0-25.74,8.66-25.74,25.74v30.4a7.51,7.51,0,0,0,15,0V50.06c0-7.32,3.41-10.73,10.73-10.73h6.08c7.32,0,10.73,3.41,10.73,10.73v30.4a7.51,7.51,0,0,0,15,0V50.06C283.08,33,274.42,24.32,257.34,24.32Z" style="fill:#020202"/><path d="M324.36,24.32h-6.08c-17.08,0-25.74,8.66-25.74,25.74V62.22C292.54,79.3,301.2,88,318.28,88H342.6a7.51,7.51,0,0,0,0-15H318.28c-6.83,0-10.26-3-10.69-9.31h35a7.29,7.29,0,0,0,5.28-2.17,7.19,7.19,0,0,0,2.22-5.33V50.06C350.1,33,341.44,24.32,324.36,24.32Zm-6.08,15h6.08c6.83,0,10.26,3,10.69,9.31H307.59C308,42.29,311.45,39.33,318.28,39.33Z"/><path d="M385.3,39.33h24.32a7.49,7.49,0,0,0,5.29-12.8,7.25,7.25,0,0,0-5.29-2.21H385.3c-17.08,0-25.74,8.66-25.74,25.74V62.22C359.56,79.3,368.22,88,385.3,88h24.32a7.51,7.51,0,0,0,0-15H385.3c-7.32,0-10.73-3.41-10.73-10.73V50.06C374.57,42.74,378,39.33,385.3,39.33Z"/><path d="M477.08,76.76,462.06,51l13.82-13.93A7.14,7.14,0,0,0,478,31.77a7.49,7.49,0,0,0-2.15-5.27,7.52,7.52,0,0,0-10.59,0l-23.7,23.87V7.51a7.26,7.26,0,0,0-2.22-5.3,7.44,7.44,0,0,0-10.58,0,7.25,7.25,0,0,0-2.21,5.3V80.46a7.51,7.51,0,0,0,15,0V71.62l9.52-9.57L464,84.21a7.21,7.21,0,0,0,4.57,3.49,7.83,7.83,0,0,0,2,.27,7.38,7.38,0,0,0,7.15-5.55A7.25,7.25,0,0,0,477.08,76.76Z"/><path d="M540,37.54c-6.62,0-11.62,1.65-14.88,4.91l-.61.61-.6-.61c-3.26-3.26-8.27-4.91-14.89-4.91-13.32,0-19.8,6.48-19.8,19.8V83.16a4.31,4.31,0,0,0,8.62,0V57.34c0-7.32,3.87-11.18,11.18-11.18S520.24,50,520.24,57.34V83.16a4.31,4.31,0,0,0,8.62,0V57.34c0-7.32,3.87-11.18,11.18-11.18S551.22,50,551.22,57.34V83.16a4.31,4.31,0,0,0,8.62,0V57.34C559.84,44,553.36,37.54,540,37.54Z" style="fill:#0b3cb7"/><path d="M589.67,37.54H584.5c-13.32,0-19.79,6.48-19.79,19.8V67.67c0,13.32,6.47,19.79,19.79,19.79h20.66a4.31,4.31,0,0,0,0-8.61H584.5c-7.31,0-11.18-3.87-11.18-11.18v-.86h31.84a4.16,4.16,0,0,0,3-1.25,4.11,4.11,0,0,0,1.27-3.06V57.34C609.47,44,603,37.54,589.67,37.54Zm11.18,20.65H573.32v-.85c0-7.32,3.87-11.18,11.18-11.18h5.17c7.31,0,11.18,3.86,11.18,11.18Z" style="fill:#0b3cb7"/><path d="M654.78,16.89a4.35,4.35,0,0,0-4.31,4.31V37.54H634.13c-13.32,0-19.8,6.48-19.8,19.8V67.67c0,13.32,6.48,19.79,19.8,19.79h5.16c13.33,0,19.8-6.47,19.8-19.79V21.2a4.34,4.34,0,0,0-4.31-4.31Zm-4.31,50.78c0,7.31-3.86,11.18-11.18,11.18h-5.16C626.81,78.85,623,75,623,67.67V57.34c0-7.32,3.86-11.18,11.18-11.18h16.34Z" style="fill:#0b3cb7"/><path d="M668.26,37.54a4.34,4.34,0,0,0-4.3,4.31V83.16a4.31,4.31,0,0,0,8.61,0V41.85a4.34,4.34,0,0,0-4.31-4.31Z" style="fill:#0b3cb7"/><path d="M671.3,18.16a4.31,4.31,0,0,0-7.34,3,4.31,4.31,0,1,0,7.34-3Z" style="fill:#0b3cb7"/><path d="M702.4,37.54h-5.16c-13.33,0-19.8,6.48-19.8,19.8V67.67c0,13.32,6.47,19.79,19.8,19.79h20.65a4.34,4.34,0,0,0,4.31-4.3V57.34C722.2,44,715.72,37.54,702.4,37.54Zm11.18,41.31H697.24c-7.32,0-11.19-3.87-11.19-11.18V57.34c0-7.32,3.87-11.18,11.19-11.18h5.16c7.32,0,11.18,3.86,11.18,11.18Z" style="fill:#0b3cb7"/></svg>
