<svg xmlns="http://www.w3.org/2000/svg" id="Layer_1" x="0" y="0" version="1.1" viewBox="0 0 1342.9 308.7" xml:space="preserve">
  <defs/>
  <g id="Layer_2_1_">
    <g id="Layer_1-2">
      <linearGradient id="SVGID_1_" x1="186.191" x2="63.441" y1="338.379" y2="56.389" gradientTransform="matrix(1 0 0 -1 0 310)" gradientUnits="userSpaceOnUse">
        <stop offset=".02" stop-color="#fad899"/>
        <stop offset=".28" stop-color="#f58c81"/>
        <stop offset=".51" stop-color="#f14e6e"/>
        <stop offset=".68" stop-color="#ee2862"/>
        <stop offset=".77" stop-color="#ed1a5e"/>
      </linearGradient>
      <path fill="url(#SVGID_1_)" d="M225.6 20.9L141 187.4l-3.8 7.6-6.5 12.7-23.7 46.7h-.1c-16.1-1.9-31.3-8.4-43.7-18.9-.1 0-.1-.1-.2-.2-16.1-13.6-26.4-32.9-28.7-53.8 0-.2 0-.4-.1-.7l14.5-28.6 6.7-13.2L125.7 0h87c7.9 0 14.4 6.4 14.4 14.3.1 2.3-.5 4.6-1.5 6.6z"/>
      <path d="M137.2 194.9l-6.5 12.7c-28.1 0-85.3-1.6-75.3-68.7-2.6 65 81.8 56 81.8 56z" opacity=".22"/>
      <linearGradient id="SVGID_2_" x1="36.333" x2="178.753" y1="186.004" y2="2.474" gradientTransform="matrix(1 0 0 -1 0 310)" gradientUnits="userSpaceOnUse">
        <stop offset=".05" stop-color="#5ecae7"/>
        <stop offset=".19" stop-color="#5cc4e4"/>
        <stop offset=".38" stop-color="#58b5db"/>
        <stop offset=".59" stop-color="#509bcc"/>
        <stop offset=".82" stop-color="#4577b8"/>
        <stop offset="1" stop-color="#3b53a4"/>
      </linearGradient>
      <path fill="url(#SVGID_2_)" d="M255.1 207.7l-26.4 50.7-25.2 48.2-156.7-.3c-33.8-.3-56-35-42.9-65.4.4-1 44.9-88.6 51.6-101.9-10 67 47.3 68.7 75.3 68.7h124.3z"/>
      <linearGradient id="SVGID_3_" x1="48.348" x2="117.218" y1="166.187" y2="88.857" gradientTransform="matrix(1 0 0 -1 0 310)" gradientUnits="userSpaceOnUse">
        <stop offset="0" stop-color="#fff" stop-opacity="0"/>
        <stop offset=".05" stop-color="#fff" stop-opacity=".02"/>
        <stop offset=".12" stop-color="#fff" stop-opacity=".07"/>
        <stop offset=".18" stop-color="#fff" stop-opacity=".16"/>
        <stop offset=".25" stop-color="#fff" stop-opacity=".29"/>
        <stop offset=".32" stop-color="#fff" stop-opacity=".46"/>
        <stop offset=".39" stop-color="#fff" stop-opacity=".66"/>
        <stop offset=".47" stop-color="#fff" stop-opacity=".89"/>
        <stop offset=".5" stop-color="#fff"/>
        <stop offset=".94" stop-color="#fff" stop-opacity=".12"/>
        <stop offset="1" stop-color="#fff" stop-opacity="0"/>
      </linearGradient>
      <path fill="url(#SVGID_3_)" d="M55.5 139c-.7 5-1.1 10.1-1.1 15.2s.6 10.1 1.8 15.1c1.2 4.9 3.2 9.6 5.9 13.9 2.7 4.3 6.2 8 10.3 11 8.1 6.1 18 9.4 27.9 11.2s20.2 2.2 30.3 2.2v.3c-5.1.6-10.2.7-15.3.8-5.2 0-10.3-.4-15.4-1.1-5.2-.7-10.3-2-15.2-3.7-5-1.8-9.8-4.3-14.1-7.4-4.3-3.2-8-7.3-10.9-11.8-2.8-4.6-4.8-9.6-5.9-14.8-2.2-10.4-1.1-20.9 1.2-30.8l.5-.1z"/>
      <path d="M320 180.6h29.2v102.2h63.2v23.8H320v-126zM446.8 300.3c-10.2-5.3-18.7-13.4-24.7-23.3a66.959 66.959 0 010-66.8c5.9-9.9 14.5-18 24.7-23.3 10.5-5.6 22.3-8.5 35.4-8.5 13.1 0 24.8 2.8 35.3 8.5 31.3 16.7 43.2 55.6 26.5 86.9-6 11.2-15.2 20.5-26.5 26.5-10.4 5.6-22.2 8.5-35.3 8.5-13.1 0-24.9-2.9-35.4-8.5zm55.5-21.5c5.9-3.4 10.8-8.3 14.1-14.3 6.8-13.1 6.8-28.7 0-41.8-3.3-6-8.2-10.9-14.1-14.3-12.6-6.8-27.8-6.8-40.3 0-5.9 3.4-10.8 8.3-14.1 14.3-6.8 13.1-6.8 28.7 0 41.8 3.3 6 8.2 10.9 14.1 14.3 12.6 6.8 27.8 6.8 40.3 0zM683.2 180.6v126h-23.9l-62.8-76.5v76.5h-28.8v-126h24.1l62.6 76.5v-76.5h28.8zM792.8 241.6h26.6v51.1c-7.2 5.3-15.2 9.3-23.8 11.9-8.8 2.7-18 4.1-27.2 4.1-13.1 0-24.8-2.8-35.3-8.4-10.2-5.3-18.7-13.4-24.6-23.2a67.521 67.521 0 010-67.1c5.9-9.9 14.5-17.9 24.8-23.2 10.6-5.6 22.4-8.4 35.6-8.4 10.3-.1 20.5 1.8 30.1 5.6 8.7 3.5 16.5 9.1 22.7 16.2L803 217.5c-9-9.5-19.9-14.2-32.6-14.2-7.4-.2-14.8 1.6-21.4 5-6.1 3.2-11.2 8.2-14.6 14.2-7 13.1-7 28.8 0 41.9 3.4 6 8.4 11 14.5 14.3 6.5 3.5 13.8 5.3 21.2 5.1 7.9.1 15.7-1.7 22.7-5.4v-36.8zM956.7 180.6v126h-23.9L870 230.1v76.5h-28.8v-126h24.1l62.6 76.5v-76.5h28.8zM1078.7 283.2v23.4h-97.6v-126h95.2V204h-66.2v27.4h58.5V254h-58.5v29.2h68.6zM1121.6 300.4c-10.1-5.3-18.6-13.4-24.5-23.2a67.521 67.521 0 010-67.1c5.9-9.8 14.3-17.9 24.5-23.2 10.4-5.6 22-8.4 35-8.4 10.2-.1 20.2 1.8 29.6 5.8 8.6 3.7 16.2 9.4 22.2 16.6l-18.7 17.3c-8.5-9.8-19.1-14.8-31.7-14.8-7.3-.1-14.5 1.6-20.9 5.1-6 3.3-11 8.3-14.3 14.3-6.8 13.1-6.8 28.7 0 41.8 3.3 6 8.3 11 14.3 14.3 6.4 3.5 13.6 5.3 20.9 5.1 12.6 0 23.2-5 31.7-14.9l18.7 17.3c-6 7.3-13.6 13.1-22.3 16.8-9.4 3.9-19.5 5.9-29.7 5.8-12.1-.1-24.1-3-34.8-8.6zM1268.6 257.1l-16.9 17.6v31.9h-29v-126h29v58.9l55.8-58.9h32.4l-52.2 56.2 55.3 69.8h-34l-40.4-49.5z" class="st4"/>
    </g>
  </g>
</svg>
