<svg id="Layer_1" data-name="Layer 1" xmlns="http://www.w3.org/2000/svg" xmlns:xlink="http://www.w3.org/1999/xlink" viewBox="0 0 137.56 70.42"><defs><style>.cls-1{fill:url(#linear-gradient);}.cls-2{fill:url(#New_Gradient_Swatch_1);}.cls-3{fill:url(#New_Gradient_Swatch_1-2);}.cls-4{fill:url(#linear-gradient-2);}.cls-5{fill:#de8413;}.cls-6{fill:url(#linear-gradient-3);}.cls-7{fill:url(#linear-gradient-4);}.cls-8{fill:none;}.cls-9{fill:url(#linear-gradient-5);}.cls-10{fill:url(#New_Gradient_Swatch_1-3);}.cls-11{fill:url(#linear-gradient-6);}</style><linearGradient id="linear-gradient" x1="-0.89" y1="42.83" x2="2.9" y2="42.83" gradientTransform="matrix(0.98, -0.2, 0.2, 0.98, -6.89, 1.24)" gradientUnits="userSpaceOnUse"><stop offset="0" stop-color="#784212"/><stop offset="1" stop-color="#cf7611"/></linearGradient><linearGradient id="New_Gradient_Swatch_1" x1="25.25" y1="45.74" x2="20.27" y2="69.62" gradientUnits="userSpaceOnUse"><stop offset="0" stop-color="#512a18"/><stop offset="1" stop-color="#c16d10"/></linearGradient><linearGradient id="New_Gradient_Swatch_1-2" x1="7.25" y1="43.4" x2="1.36" y2="71.65" xlink:href="#New_Gradient_Swatch_1"/><linearGradient id="linear-gradient-2" x1="24.22" y1="20.79" x2="1.5" y2="65.64" gradientUnits="userSpaceOnUse"><stop offset="0" stop-color="#f7b903"/><stop offset="0.49" stop-color="#de8413"/><stop offset="1" stop-color="#c46e13"/></linearGradient><linearGradient id="linear-gradient-3" x1="22.15" y1="45.43" x2="22.15" y2="45.43" gradientUnits="userSpaceOnUse"><stop offset="0" stop-color="#c46e13"/><stop offset="0.51" stop-color="#de8413"/><stop offset="1" stop-color="#f7b903"/></linearGradient><linearGradient id="linear-gradient-4" x1="17.16" y1="60.52" x2="37.67" y2="40.01" gradientUnits="userSpaceOnUse"><stop offset="0" stop-color="#c46e13"/><stop offset="0.55" stop-color="#de8413"/><stop offset="1" stop-color="#f7b903"/></linearGradient><linearGradient id="linear-gradient-5" x1="30.12" y1="6.87" x2="16.21" y2="34.33" xlink:href="#linear-gradient-2"/><linearGradient id="New_Gradient_Swatch_1-3" x1="1.58" y1="49.06" x2="-0.58" y2="53.33" gradientTransform="translate(-0.84 0.03) rotate(-1.05)" xlink:href="#New_Gradient_Swatch_1"/><linearGradient id="linear-gradient-6" x1="23.3" y1="7.09" x2="38.26" y2="4.81" gradientTransform="matrix(0.88, -0.14, 0.14, 0.85, 5.86, 4.87)" gradientUnits="userSpaceOnUse"><stop offset="0" stop-color="#de8413"/><stop offset="0.19" stop-color="#c46e13"/><stop offset="1" stop-color="#f7b903"/></linearGradient></defs><path class="cls-1" d="M3.23,37.45c-1.6,3.76-.49,7.64-1.43,11l.32.1c.9-2.42.62-8.44,1.74-9C3.29,38.11,3.37,38.65,3.23,37.45Z"/><path class="cls-2" d="M26.22,46.05l-.63,11.36L25,59.07l-.1,2.08-.77,8.25a.74.74,0,0,1-.7.69l-.67,0a.72.72,0,0,1-.76-.7s.56-13.6.12-18.27c-.26-2.67.63-4.75-.45-6.16Z"/><path class="cls-3" d="M3.89,56.86c.38.84.73,1.71,1.07,2.59L4.22,69.62a.55.55,0,0,1-.55.49H2.58A.55.55,0,0,1,2,69.56V56.75A16.89,16.89,0,0,0,5.49,45.94l0,.07C6.72,50.59,6.05,53.6,3.89,56.86Z"/><path class="cls-4" d="M12,45.86c-.89,1.92-3.23,8.24-3.59,12a25.67,25.67,0,0,0,0,3.44,55.16,55.16,0,0,0,1,8.16.51.51,0,0,1-.49.64H7.6a.51.51,0,0,1-.49-.38C6.52,67.28,5.81,61.68,5,59.45c-.34-.88-.69-1.75-1.07-2.59,2.16-3.25,2.82-6.25,1.65-10.81l0-.11a17.73,17.73,0,0,1-2-4.41,15.47,15.47,0,0,1-.25-4.08c.1-.21.18-.43.27-.65A7.8,7.8,0,0,1,9,31.56H9c13.29-2,21-6.32,24.14-14a44.11,44.11,0,0,0-2.42,15.54"/><path class="cls-5" d="M27.4,46.11"/><path class="cls-6" d="M22.15,45.43"/><path class="cls-5" d="M27.37,46.07l-4.7-.37Z"/><path class="cls-7" d="M29.39,41.69c1.58-2.55,1.32-5.06,1.32-8.64C21.38,37.17,15.63,39.1,12,45.89a55.66,55.66,0,0,1,8-.68,20.37,20.37,0,0,1,2.69.51h0c1.28,1.23.71,3.42,1.36,6,1.14,4.55,2.62,18.08,2.62,18.08a.72.72,0,0,0,.85.58l.66-.12a.73.73,0,0,0,.59-.79l-.46-8.27-.22-2.07.38-1.74L27.36,46.09h0s0,0,0,0C27.28,45,27.87,44.16,29.39,41.69Z"/><path class="cls-8" d="M28,58.18"/><path class="cls-9" d="M33.13,17.51a83.25,83.25,0,0,1,4-11.28s-2.62-2.2-4-2.49a5.28,5.28,0,0,1-.3,2c-.5,1.32-2.64,6-4.84,11.24s-4,9.39-6.37,10.71c-1.53.88-6.31,1.86-12.63,3.92,0,0,9-.92,12.39-2.25a19.21,19.21,0,0,0,7.33-4.9A17.1,17.1,0,0,0,33.13,17.51Z"/><path class="cls-10" d="M1.6,48.39l.52.17A21.09,21.09,0,0,1,0,53.72a39.56,39.56,0,0,1,1.06-4.95A.48.48,0,0,1,1.6,48.39Z"/><path class="cls-11" d="M33,3.82c.29-.58,1-.9,1.17-1.14A4.17,4.17,0,0,1,35.41,2a.63.63,0,0,0,.36-.66c-.06-.32-.51-.74-.6-.88s.15-.53.47-.46.9,1.25.9,1.25,1.05.55,1.08.59h0a1,1,0,0,0,.79.12,1.24,1.24,0,0,1,1.32.72c.21.59,2.46,1.9,2.46,1.9s1.8,1.07,2.1,2.3c0,0-.23.44-.71.07a.69.69,0,0,1-.79.27c-.6-.11-.5,0-.73-.21s-.11-.25-.47-.33-1.51-.06-2-.16a4,4,0,0,1-3.24-.07s-.88-1-1.2-1.12a8.41,8.41,0,0,1-1.69-.7A2.49,2.49,0,0,1,33,3.82Z"/><path d="M39.78,46.89H43v8.69H48.3v2.51H39.78Z"/><path d="M52.22,57.56A5.7,5.7,0,0,1,50,55.48a5.73,5.73,0,0,1,2.22-8.06,7.1,7.1,0,0,1,6.39,0,5.81,5.81,0,0,1,2.22,8.06,5.7,5.7,0,0,1-2.22,2.08,7.18,7.18,0,0,1-6.39,0ZM57,55.29A3,3,0,0,0,58,54.16a3.38,3.38,0,0,0,.4-1.67,3.42,3.42,0,0,0-.4-1.68A2.87,2.87,0,0,0,57,49.69a3.15,3.15,0,0,0-3.07,0,2.87,2.87,0,0,0-1.09,1.12,3.42,3.42,0,0,0-.4,1.68,3.38,3.38,0,0,0,.4,1.67,3,3,0,0,0,1.09,1.13,3.15,3.15,0,0,0,3.07,0Z"/><path d="M74.36,46.89v11.2H71.75l-4.94-6v6H63.7V46.89h2.61l5,6v-6Z"/><path d="M84.5,52.25h2.8v4.64a7.11,7.11,0,0,1-2.2,1,8.7,8.7,0,0,1-2.5.37,6.77,6.77,0,0,1-3.17-.74,5.65,5.65,0,0,1-2.21-2.07,6.06,6.06,0,0,1,0-6,5.5,5.5,0,0,1,2.23-2.07,6.79,6.79,0,0,1,3.21-.75,7.2,7.2,0,0,1,2.82.53,5.4,5.4,0,0,1,2.08,1.52l-2,1.83a3.51,3.51,0,0,0-2.72-1.25,3,3,0,0,0-3.2,3.2,3.41,3.41,0,0,0,.4,1.65,2.86,2.86,0,0,0,1.12,1.14,3.31,3.31,0,0,0,1.65.41,4.1,4.1,0,0,0,1.71-.37Z"/><path d="M100.38,46.89v11.2H97.77l-5-6v6h-3.1V46.89h2.61l4.94,6v-6Z"/><path d="M112,55.64v2.45h-9V46.89h8.78v2.45h-5.65v1.88h5v2.37h-5v2Z"/><path d="M116.58,57.57a5.56,5.56,0,0,1-2.2-2.07,6.06,6.06,0,0,1,0-6,5.42,5.42,0,0,1,2.2-2.07,6.56,6.56,0,0,1,3.16-.75,6.88,6.88,0,0,1,2.77.55,5.19,5.19,0,0,1,2,1.57l-2,1.82a3.34,3.34,0,0,0-2.64-1.31,3.26,3.26,0,0,0-1.63.4,2.76,2.76,0,0,0-1.1,1.12,3.53,3.53,0,0,0-.39,1.68,3.49,3.49,0,0,0,.39,1.67,2.85,2.85,0,0,0,1.1,1.13,3.38,3.38,0,0,0,4.27-.91l2,1.82a5.38,5.38,0,0,1-2,1.57,6.88,6.88,0,0,1-2.77.54A6.67,6.67,0,0,1,116.58,57.57Z"/><path d="M130.68,54l-1.18,1.27v2.8h-3.14V46.89h3.14v4.65l4.33-4.65h3.49l-4.58,5,4.82,6.24h-3.68Z"/><path d="M45.86,70.09v-4.2l-2.06,3.46h-.73L41,66v4.11H39.49v-7h1.34l2.62,4.35L46,63.09h1.33l0,7Z"/><path d="M54.46,68.79v1.3H49v-7h5.29v1.3H50.65v1.52H53.9v1.26H50.65v1.62Z"/><path d="M55.75,63.09h3.18a4.51,4.51,0,0,1,2,.43,3.31,3.31,0,0,1,1.36,1.23,3.77,3.77,0,0,1,0,3.68A3.35,3.35,0,0,1,61,69.65a4.51,4.51,0,0,1-2,.44H55.75Zm3.1,5.67a2.37,2.37,0,0,0,1.68-.59,2.34,2.34,0,0,0,0-3.17,2.37,2.37,0,0,0-1.68-.58H57.37v4.34Z"/><path d="M64,63.09h1.62v7H64Z"/><path d="M71.9,68.59H68.65L68,70.09H66.37l3.12-7h1.6l3.13,7h-1.7Zm-.51-1.23-1.11-2.68-1.11,2.68Z"/></svg>