<?xml version="1.0" encoding="UTF-8"?>
<svg width="2962px" height="732px" viewBox="0 0 2962 732" version="1.1" xmlns="http://www.w3.org/2000/svg" xmlns:xlink="http://www.w3.org/1999/xlink">
    <!-- Generator: Sketch 55.2 (78181) - https://sketchapp.com -->
    <title>longneck-logo</title>
    <desc>Created with Sketch.</desc>
    <g id="Page-1" stroke="none" stroke-width="1" fill="none" fill-rule="evenodd">
        <g id="longneck-logo" transform="translate(0.000000, -1.000000)">
            <g id="logo-head" transform="translate(0.000000, 0.500000)">
                <g id="Longneck-head-right" transform="translate(186.000000, 0.500000)">
                    <path d="M153.688889,732 L109.56985,722.389411 L69.2457398,673.186803 L109.56985,695.544065 L153.688889,701.496499 L197.807928,695.544065 L238.132038,673.186803 L197.807928,722.389411 L153.688889,732 Z" id="Combined-Shape" fill="#E2E0DB"></path>
                    <path d="M153.688889,701.496499 L109.56985,695.544065 L55.9670382,666.273829 L49.1747148,625.979112 L56.9160562,585.645643 L92.0700444,553.848094 L63.8892879,349.611066 L37.0096504,316.336208 L19.3599146,272.497135 L0.257221143,235.514064 L37.0096504,114.122236 L29.0317819,23.6181495 L37.0096504,11.2805043 L62.1188436,0 L86.7987943,11.8090747 L98.746794,86.9057501 L153.688889,84.2674705 L208.630984,86.9057501 L220.578983,11.8090747 L245.258934,0 L270.368127,11.2805043 L278.345996,23.6181495 L270.368127,114.122236 L307.120557,235.514064 L288.017863,272.497135 L270.368127,316.336208 L243.48849,349.611066 L215.307733,553.848094 L250.461722,585.645643 L258.203063,625.979112 L251.41074,666.273829 L197.807928,695.544065 L153.688889,701.496499 Z" id="Combined-Shape" fill="#637C95"></path>
                    <path d="M343.524027,269.652236 L352.439103,332.095061 L316.46076,360.163124 L278.557924,422.777996 L250.351574,585.645643 L215.307733,553.848094 L243.48849,349.611066 L270.368127,316.336208 L288.017863,272.497135 L307.120557,235.514064 L295.431099,197.018432 L344.903656,108.243222 L442.47295,84.2674705 L494,96.5192578 L491.788513,125.46969 L470.780804,181.182943 L403.554985,264.10908 L343.524027,269.652236 Z" id="Combined-Shape" fill="#E2E0DB"></path>
                    <g id="eye" transform="translate(288.775310, 290.381105)">
                        <polygon id="Path-20" fill="#242424" points="57.7148814 0.0403400707 63.6637936 41.7139561 8.59768386 15.7479045"></polygon>
                        <polygon id="Path-21" fill="#000000" points="63.6637936 41.7139561 27.6854502 69.7820186 8.59768386 15.7479045"></polygon>
                        <polygon id="Path-22" fill="#313131" points="27.6854502 69.7820186 9.09494702e-13 54.4671328 8.59768386 15.7479045"></polygon>
                    </g>
                    <polygon id="nose" fill="#232323" points="194.100139 566.035361 216.924443 585.706214 185.905051 597.782554 178.288635 579.157987"></polygon>
                </g>
                <g id="Longneck-head-right" transform="translate(158.000000, 342.500000) scale(-1, 1) translate(-158.000000, -342.500000) translate(0.000000, 85.500000)">
                    <path d="M165.600178,185.526764 L174.510743,247.959639 L138.550607,276.023229 L100.666954,338.628124 L72.4748776,501.469817 L37.448772,469.677336 L65.6152669,265.472853 L92.4813014,232.203297 L110.122105,188.37121 L129.215131,151.394031 L117.531589,112.904533 L166.97911,24.1434706 L264.499026,0.171539025 L316,12.421374 L313.789632,41.3671933 L292.792555,97.0715681 L225.600757,179.984491 L165.600178,185.526764 Z" id="Combined-Shape" fill="#E2E0DB"></path>
                    <g id="eye" transform="translate(110.879168, 206.252330)">
                        <polygon id="Path-20" fill="#242424" points="57.6856734 0.0403336426 63.631575 41.7073091 8.59333281 15.7453951"></polygon>
                        <polygon id="Path-21" fill="#000000" points="63.631575 41.7073091 27.6714393 69.7708989 8.59333281 15.7453951"></polygon>
                        <polygon id="Path-22" fill="#313131" points="27.6714393 69.7708989 9.09494702e-13 54.4584535 8.59333281 15.7453951"></polygon>
                    </g>
                    <polygon id="nose" fill="#232323" points="16.2519098 481.862661 39.0646636 501.530379 8.06096938 513.604795 0.448408168 494.983195"></polygon>
                </g>
            </g>
            <text id="LongneckMedia" fill="#000000" font-family="Inter-Bold, Inter" font-size="250" font-weight="bold" line-spacing="340">
                <tspan x="780" y="300">LONGNECK</tspan>
                <tspan x="2181.54474" y="300" font-family="Inter-Regular, Inter" font-weight="normal">MEDIA</tspan>
            </text>
        </g>
    </g>
</svg>