<svg xmlns="http://www.w3.org/2000/svg" viewBox="0 0 266.13 257.9"><path d="M130.62,257.4l19.1-36.7H56a26,26,0,0,1-5.6-.7,16.65,16.65,0,0,1-5.8-2.9,16.87,16.87,0,0,1-4.6-5,18.55,18.55,0,0,1-1.4-17.8l.1-.2,89.5-167A18.39,18.39,0,1,0,95.82,9.7L5.42,178.1a55.85,55.85,0,0,0,21.2,71.5,60.75,60.75,0,0,0,7.6,4,54.93,54.93,0,0,0,21.7,4.3h.5Z"/><path d="M166.52,108.5a9.09,9.09,0,0,0,.8-3.7,8.47,8.47,0,0,0-4.7-7.5,9.1,9.1,0,0,0-4-1,8.51,8.51,0,0,0-7.5,4.5L96.82,204.1H62a4.28,4.28,0,0,1-3.6-1.8,4.16,4.16,0,0,1-.3-4.3c53.2-101.3,60-114.3,61-116h0a46,46,0,0,1,39.2-22.8h.5a44.05,44.05,0,0,1,20.1,4.7,49.11,49.11,0,0,1,9.1,5.9l1.5,1.3,1.5-1.3a45.55,45.55,0,0,1,28.8-10.5h.5a45.89,45.89,0,0,1,45.8,45.3h0a44.42,44.42,0,0,1-2.5,15.4L220,204.3h-41.7l49.8-95.6a9.21,9.21,0,0,0,.8-3.8,8.29,8.29,0,0,0-4.7-7.5,9.1,9.1,0,0,0-4-1,8.4,8.4,0,0,0-7.5,4.5l-54.2,103.3h-42.1Z"/><path d="M168.42,257.2a39.43,39.43,0,0,0,34.8-21.2l8-15.2h-41.7l-19,36.6Z"/></svg>