<?xml version="1.0" encoding="UTF-8"?>
<svg width="4003px" height="958px" viewBox="0 0 4003 958" version="1.1" xmlns="http://www.w3.org/2000/svg" xmlns:xlink="http://www.w3.org/1999/xlink">
    <!-- Generator: Sketch 55.2 (78181) - https://sketchapp.com -->
    <title>logo </title>
    <desc>Created with Sketch.</desc>
    <g id="Page-1" stroke="none" stroke-width="1" fill="none" fill-rule="evenodd">
        <g id="logo-" transform="translate(0.000000, -196.000000)">
            <text id="Longneck-Media" font-family="Montserrat-ExtraBold, Montserrat ExtraBold" font-size="500" font-weight="700" line-spacing="300" fill="#292828">
                <tspan x="1000" y="484">LONGNECK </tspan>
                <tspan x="1188.4" y="1005.19751" font-family="Montserrat-Bold, Montserrat" font-size="300" font-weight="bold">MEDIA</tspan>
            </text>
            <g id="head" transform="translate(0.000000, 196.000000)">
                <g id="Group">
                    <g id="main-head-shape" fill="#B8942C">
                        <path d="M425,168.220298 L495.715884,151.006024 L528.996265,90.7358787 L544.875434,20.5739209 L587.016016,0 L619.931089,13.6784287 L611.977991,173.771482 L597.83708,212.550974 L606.460472,235.103313 L672.652717,134.719552 L747.264475,92.958717 L850,80.0143717 L799.588385,228.633836 L729.872855,303.248877 L678.10533,319.315251 L691.217436,352.879361 L682.047454,369.348792 L672.569381,432.553988 L638.917846,487.320213 L617.35095,616.961791 L566.431767,700.046308 L566.431767,828.039489 L535.333752,880.98216 L521.91389,930.124661 L425,958 L328.08611,930.124661 L314.666248,880.98216 L283.568233,828.039489 L283.568233,700.046308 L232.64905,616.961791 L211.082154,487.320213 L177.430619,432.553988 L167.952546,369.348792 L158.782564,352.879361 L171.89467,319.315251 L120.127145,303.248877 L50.4116152,228.633836 L0,80.0143717 L102.735525,92.958717 L177.347283,134.719552 L243.539528,235.103313 L252.16292,212.550974 L238.022009,173.771482 L230.068911,13.6784287 L262.983984,0 L305.124566,20.5739209 L321.003735,90.7358787 L354.284116,151.006024 L425,168.220298 Z" id="Combined-Shape"></path>
                    </g>
                    <g id="ear-top" transform="translate(0.000000, 80.014372)">
                        <polygon id="ear" fill="#6B590F" points="2.84217094e-14 0 102.735525 12.9443453 177.347283 54.7051805 243.540393 155.081905 228.309534 168.531332 173.183436 59.4402406 102.735525 16.4717301"></polygon>
                        <polygon id="Path-2" fill="#8F641B" points="177.430619 225.130068 125.593087 206.637836 85.6748671 164.280945 85.6748671 153.473076 71.0422831 109.132334 109.754318 91.5629664 146.751109 121.547649 187.106473 143.86017 207.688679 182.853258 197.027175 187.96302"></polygon>
                    </g>
                    <polygon id="Path-4" fill="#856B20" points="195.558362 335.015846 158.782564 352.879361 167.952546 369.348792 198.363277 361.269398 242.685462 388.811715 243.119133 393.586622 254.953283 385.379289 230.234239 356.124984"></polygon>
                    <polygon id="Path-3" fill="#856B20" points="252.16292 212.550974 238.022009 173.771482 258.062522 196.631216 321.003735 184.568839 354.284116 151.006024 425 168.220298 354.033019 166.321905 333.26094 193.051151 265.76897 218.718801 243.540393 235.096277"></polygon>
                    <polygon id="Path-5" fill="#6B590F" points="230.068911 13.6784287 262.983984 0 305.124566 20.5739209 251.186173 30.4466049"></polygon>
                    <g id="eye" transform="translate(167.594340, 360.753138)">
                        <polygon id="eye-back" fill="#363636" points="0.358206193 8.59565416 30.7689374 0.516259962 75.0911219 28.0585774 79.6114584 77.656784 30.7689374 93.9786838 9.83627938 71.8008504"></polygon>
                        <polygon id="eye-lower" fill="#545454" points="9.83627938 71.8008504 75.0911219 28.0585774 79.6114584 77.656784 30.7689374 93.9786838"></polygon>
                    </g>
                    <g id="nose" transform="translate(283.066038, 236.493724)">
                        <polygon id="nose-side" fill="#A48630" points="106.480164 147.209723 71.5192675 484.713085 0.502194809 591.545765 0.502194809 463.552584"></polygon>
                        <polygon id="main-nose-shape" fill="#C9A433" points="31.6023585 644.508993 141.933962 688.277359 141.933962 -1.81691663e-14 106.480164 147.209723 71.5192675 484.713085 0.502194809 591.545765"></polygon>
                        <polygon id="nose-front" fill="#B8942C" points="141.933962 688.277359 31.6023585 644.508993 0.502194809 591.545765 71.5192675 484.713085 105.792609 540.058377 141.933962 553.959507"></polygon>
                        <polygon id="nose-hole" fill="#545454" points="71.4573215 503.451046 95.3302204 542.696409 63.0335418 547.569411 47.3113208 539.819872"></polygon>
                    </g>
                </g>
                <g id="Group" transform="translate(581.500000, 479.500000) scale(-1, 1) translate(-581.500000, -479.500000) translate(313.000000, 0.000000)">
                    <g id="main-head-shape"></g>
                    <g id="lip-lower" transform="translate(314.538922, 880.237657)" fill="#6B590F">
                        <path d="M110.730539,44.5492272 L221.134246,0.744502948 L207.705875,49.8870044 L110.730539,77.7623431 L13.755203,49.8870044 L0.326832101,0.744502948 L110.730539,44.5334264 L110.730539,44.5492272 Z" id="Combined-Shape"></path>
                    </g>
                    <g id="ear-top" transform="translate(0.000000, 80.167364)">
                        <polygon id="ear" fill="#6B590F" points="2.84217094e-14 0 102.800662 12.9443453 177.459726 54.7051805 243.694804 155.081905 228.454288 168.531332 173.293239 59.4402406 102.800662 16.4717301"></polygon>
                        <polygon id="Path-2" fill="#8F641B" points="177.543115 225.130068 125.672716 206.637836 85.7291872 164.280945 85.7291872 153.473076 71.0873258 109.132334 109.823905 91.5629664 146.844153 121.547649 187.225104 143.86017 207.820359 182.853258 197.152096 187.96302"></polygon>
                    </g>
                    <polygon id="Path-4" fill="#856B20" points="195.694678 335.099582 158.874251 352.948273 168.055361 369.404039 198.502997 361.331349 242.878968 388.850813 243.313166 393.621757 255.161677 385.421234 230.412635 356.191204"></polygon>
                    <polygon id="Path-3" fill="#856B20" points="252.450783 212.322156 238.311377 173.503243 258.349757 196.386215 321.284268 184.311576 354.561106 150.714644 425.269461 168.220298 354.310036 166.046094 333.540168 192.80251 266.055384 218.496253 243.829174 234.890377"></polygon>
                    <polygon id="Path-5" fill="#6B590F" points="230.287425 13.6860631 263.364538 0 305.712575 20.585404 251.508647 30.4635983"></polygon>
                    <g id="eye" transform="translate(167.700599, 360.753138)">
                        <polygon id="eye-back" fill="#363636" points="0.358433305 8.59565416 30.7884457 0.516259962 75.1387316 28.0585774 79.6619341 77.656784 30.7884457 93.9786838 9.84251583 71.8008504"></polygon>
                        <polygon id="eye-lower" fill="#545454" points="9.84251583 71.8008504 75.1387316 28.0585774 79.6619341 77.656784 30.7884457 93.9786838"></polygon>
                    </g>
                    <g id="nose" transform="translate(283.245509, 236.493724)">
                        <polygon id="nose-side" fill="#A48630" points="106.547675 147.209723 71.5646125 484.713085 0.502513214 591.545765 0.502513214 463.552584"></polygon>
                        <polygon id="main-nose-shape" fill="#C9A433" points="31.6223952 644.508993 142.023952 688.277359 142.023952 -1.81691663e-14 106.547675 147.209723 71.5646125 484.713085 0.502513214 591.545765"></polygon>
                        <polygon id="nose-front" fill="#B8942C" points="142.023952 688.277359 31.6223952 644.508993 0.502513214 591.545765 71.5646125 484.713085 105.859684 540.058377 142.023952 553.959507"></polygon>
                        <polygon id="nose-hole" fill="#545454" points="71.5026273 503.451046 95.3906622 542.696409 63.0735067 547.569411 47.3413174 539.819872"></polygon>
                    </g>
                    <g id="lip-lower" transform="translate(314.538922, 880.237657)" fill="#6B590F">
                        <path d="M110.730539,44.5492272 L221.134246,0.744502948 L207.705875,49.8870044 L110.730539,77.7623431 L13.755203,49.8870044 L0.326832101,0.744502948 L110.730539,44.5334264 L110.730539,44.5492272 Z" id="Combined-Shape"></path>
                    </g>
                </g>
            </g>
        </g>
    </g>
</svg>