<?xml version="1.0" encoding="UTF-8"?>
<svg width="1474px" height="308px" viewBox="0 0 1474 308" version="1.1" xmlns="http://www.w3.org/2000/svg" xmlns:xlink="http://www.w3.org/1999/xlink">
    <defs>
        <linearGradient x1="66.541661%" y1="-11.1625278%" x2="29.9458981%" y2="99.6832547%" id="linearGradient-1">
            <stop stop-color="#FAD899" offset="2.16%"></stop>
            <stop stop-color="#F9CB94" offset="7.41%"></stop>
            <stop stop-color="#F38E7C" offset="33.02%"></stop>
            <stop stop-color="#F05E6B" offset="54.01%"></stop>
            <stop stop-color="#EE3561" offset="69.31%"></stop>
            <stop stop-color="#ED1A5E" offset="77.34%"></stop>
        </linearGradient>
        <linearGradient x1="72.4906397%" y1="-42.8952017%" x2="29.2549726%" y2="113.370191%" id="linearGradient-2">
            <stop stop-color="#FAD899" offset="23.94%"></stop>
            <stop stop-color="#ED1A5E" stop-opacity="0" offset="77.16%"></stop>
        </linearGradient>
        <linearGradient x1="14.2444565%" y1="24.5359941%" x2="70.0869232%" y2="71.8273067%" id="linearGradient-3">
            <stop stop-color="#5ECAE7" offset="4.76%"></stop>
            <stop stop-color="#5EC4E4" offset="15.63%"></stop>
            <stop stop-color="#5ABADE" offset="29.49%"></stop>
            <stop stop-color="#54A9D4" offset="44.95%"></stop>
            <stop stop-color="#4D91C7" offset="61.59%"></stop>
            <stop stop-color="#4576B7" offset="79.17%"></stop>
            <stop stop-color="#3D58A7" offset="97.28%"></stop>
            <stop stop-color="#3B53A4" offset="100%"></stop>
        </linearGradient>
        <linearGradient x1="22.3856689%" y1="28.2898424%" x2="68.0399587%" y2="70.3626329%" id="linearGradient-4">
            <stop stop-color="#5ECAE7" offset="6.31%"></stop>
            <stop stop-color="#4678B8" offset="58.45%"></stop>
            <stop stop-color="#3B53A4" offset="88.68%"></stop>
        </linearGradient>
        <linearGradient x1="-5.75466459%" y1="15.5704775%" x2="82.6712882%" y2="104.333556%" id="linearGradient-5">
            <stop stop-color="#FFFFFF" stop-opacity="0" offset="0%"></stop>
            <stop stop-color="#FFFFFF" offset="50%"></stop>
            <stop stop-color="#FFFFFF" stop-opacity="0" offset="100%"></stop>
        </linearGradient>
    </defs>
    <g id="Page-1" stroke="none" stroke-width="1" fill="none" fill-rule="evenodd">
        <g id="final-02" transform="translate(-192.000000, -549.000000)" fill-rule="nonzero">
            <g id="Group" transform="translate(192.000000, 549.000000)">
                <g transform="translate(406.000000, 159.000000)" fill="#091839">
                    <polygon id="Path" points="32.7829352 115.541429 84 115.541429 84 147 0 147 0 4 32.7829352 4"></polygon>
                    <path d="M213.307227,127.507688 C198.845378,141.82635 181.247742,149 160.5,149 C139.752258,149 122.154622,141.840669 107.692773,127.507688 C93.2309245,113.189026 86,95.5197963 86,74.5 C86,53.4945224 93.2309245,35.8252931 107.692773,21.4923121 C122.154622,7.17364982 139.752258,0 160.5,0 C181.233423,0 198.831059,7.15933116 213.307227,21.4923121 C227.769076,35.8252931 235,53.4945224 235,74.5 C235,95.5197963 227.769076,113.189026 213.307227,127.507688 Z M130.731501,105.199212 C138.706996,113.117432 148.644148,117.069383 160.514319,117.069383 C172.38449,117.069383 182.307323,113.117432 190.297136,105.199212 C198.272631,97.2809917 202.267538,87.0574668 202.267538,74.5 C202.267538,61.9425332 198.272631,51.7190083 190.297136,43.800788 C182.307323,35.8825677 172.38449,31.930617 160.514319,31.930617 C148.644148,31.930617 138.721315,35.8825677 130.731501,43.800788 C122.756006,51.7190083 118.761061,61.9425332 118.761061,74.5 C118.746781,87.0574668 122.741687,97.2953104 130.731501,105.199212 Z" id="Shape"></path>
                    <polygon id="Path" points="335.41585 4 368 4 368 147 343.56545 147 288.58415 69.3755122 288.58415 147 256 147 256 4 280.43455 4 335.41585 81.6244878"></polygon>
                    <path d="M537,66.3240438 L537,78.6094561 C537,100.030175 530.354108,117.112339 517.033679,129.870267 C503.727572,142.628195 486.840705,149 466.373077,149 C444.129391,149 425.666989,141.840669 411.000194,127.507688 C396.333398,113.189026 389,95.5770709 389,74.7004613 C389,53.8238516 396.261783,36.1546223 410.799671,21.6927734 C425.337559,7.23092447 443.112455,0 464.124359,0 C477.502081,0 489.748282,3.00691909 500.877286,9.00643859 C511.991967,15.0059581 520.628762,22.9241784 526.773348,32.7467807 L498.929353,48.7120892 C495.792606,43.800788 491.108971,39.7772439 484.907094,36.6414569 C478.690893,33.5056698 471.701248,31.930617 463.923836,31.930617 C451.777896,31.930617 441.708797,35.9541611 433.730862,44.0012493 C425.752928,52.0483375 421.756799,62.3577744 421.756799,74.9009225 C421.756799,87.3152028 425.853189,97.4528157 434.031646,105.299443 C442.224427,113.14607 453.138585,117.069383 466.788445,117.069383 C485.752153,117.069383 497.969709,109.709591 503.426788,94.9613684 L465.141295,94.9613684 L465.141295,66.3097252 L537,66.3097252 L537,66.3240438 Z" id="Path"></path>
                    <polygon id="Path" points="636.41585 4 669 4 669 147 644.56545 147 589.58415 69.3755122 589.58415 147 557 147 557 4 581.43455 4 636.41585 81.6244878"></polygon>
                    <polygon id="Path" points="729.728574 115.541429 787 115.541429 787 147 697 147 697 4 785.96963 4 785.96963 35.4585707 729.714263 35.4585707 729.714263 59.1561219 780.846398 59.1561219 780.846398 90.2144928 729.714263 90.2144928 729.714263 115.541429"></polygon>
                    <path d="M874.54921,149 C853.110221,149 835.325606,141.869306 821.195364,127.607919 C807.065121,113.36085 800,95.6486642 800,74.5 C800,53.3513358 807.065121,35.6534692 821.195364,21.3920815 C835.325606,7.13069383 853.110221,0 874.54921,0 C887.389673,0 899.255638,2.9639631 910.190095,8.90620796 C921.110221,14.8484528 929.723077,22.9241784 936,33.1620219 L907.739515,49.5282529 C904.586723,43.929656 900.086828,39.60542 894.225501,36.5269076 C888.349842,33.4627138 881.800632,31.930617 874.563541,31.930617 C861.866386,31.930617 851.720126,35.8252931 844.139094,43.6003267 C836.558061,51.3753604 832.77471,61.6847972 832.77471,74.5 C832.77471,87.3295214 836.558061,97.6246396 844.139094,105.399673 C851.720126,113.174707 861.852055,117.069383 874.563541,117.069383 C881.800632,117.069383 888.392835,115.508649 894.325817,112.358543 C900.27313,109.222756 904.730032,104.927157 907.739515,99.4717471 L936,115.837978 C929.852055,126.061503 921.325184,134.151547 910.390727,140.093792 C899.470601,146.036037 887.518651,149 874.54921,149 Z" id="Path"></path>
                    <polygon id="Path" points="1068 147 1030.70507 147 984.792583 80.9384308 984.792583 147 952 147 952 4 984.792583 4 984.792583 66.0881559 1028.65464 4 1065.94957 4 1017.58517 73.6633683"></polygon>
                </g>
                <g id="Path">
                    <path d="M226.2,21.46 L141.62,187.95 L137.78,195.5 L131.31,208.24 L107.57,254.97 L107.46,254.97 C90.9,253.06 75.83,246.26 63.77,236.05 C63.7,236.01 63.63,235.95 63.57,235.89 C47.91,222.59 37.29,203.57 34.9,182.05 C34.89,181.83 34.86,181.6 34.83,181.39 L49.29,152.79 L49.3,152.78 L55.99,139.58 L126.32,0.569973559 L213.36,0.569973559 C224.1,0.55 231.06,11.88 226.2,21.46 Z" fill="url(#linearGradient-1)"></path>
                    <path d="M183.4,0.55 L63.76,236.05 C48,222.74 37.29,203.65 34.91,182.04 C34.9,181.82 34.87,181.59 34.84,181.38 L126.33,0.55 L183.4,0.55 Z" fill="url(#linearGradient-2)"></path>
                    <path d="M137.78,195.49 L131.31,208.23 C103.25,208.23 46,206.61 55.99,139.57 C53.43,204.4 137.78,195.49 137.78,195.49 Z" fill="#000000" opacity="0.22"></path>
                    <path d="M255.65,208.27 L229.21,258.94 L204.04,307.17 L47.32,306.85 C13.48,306.55 -8.64,271.9 4.39,241.41 C4.82,240.4 49.31,152.76 56,139.56 C46.01,206.6 103.26,208.22 131.32,208.22 L255.65,208.27 Z" fill="url(#linearGradient-3)"></path>
                    <path d="M229.21,258.94 L204.04,307.17 L47.32,306.85 C13.48,306.55 -8.64,271.9 4.39,241.41 C16.77,217.06 29.45,192.1 30.4,190.23 C20.41,257.27 77.66,258.89 105.72,258.89 L229.21,258.94 Z" fill="url(#linearGradient-4)"></path>
                    <path d="M56.13,139.59 C55.51,144.62 54.92,149.68 55.05,154.76 C55.12,159.82 55.55,164.91 56.82,169.82 C58.05,174.72 59.98,179.47 62.72,183.71 C65.45,187.96 68.98,191.67 73.03,194.69 C81.13,200.81 91.04,204.05 100.97,205.88 C110.96,207.72 121.15,208.09 131.3,208.09 L131.3,208.38 C126.22,208.93 121.12,209.1 115.98,209.18 C110.85,209.15 105.69,208.86 100.56,208.1 C95.42,207.4 90.33,206.15 85.36,204.41 C80.4,202.63 75.63,200.17 71.31,196.98 C67.04,193.74 63.28,189.74 60.44,185.17 C57.64,180.57 55.67,175.53 54.62,170.36 C52.4,159.98 53.51,149.45 55.84,139.55 L56.13,139.59 Z" fill="url(#linearGradient-5)"></path>
                </g>
            </g>
        </g>
    </g>
</svg>