<?xml version="1.0" encoding="UTF-8"?>
<svg width="3583px" height="1001px" viewBox="0 0 3583 1001" version="1.1" xmlns="http://www.w3.org/2000/svg" xmlns:xlink="http://www.w3.org/1999/xlink">
    <!-- Generator: Sketch 55.2 (78181) - https://sketchapp.com -->
    <title>longneck-logo</title>
    <desc>Created with Sketch.</desc>
    <g id="Page-1" stroke="none" stroke-width="1" fill="none" fill-rule="evenodd">
        <g id="longneck-logo">
            <g id="logo-head">
                <g id="Longneck-head-right" transform="translate(255.000000, 0.000000)">
                    <polygon id="mouth" fill="#E6ECF2" points="210 959.286879 210 1001 270.284112 987.85765 325.382845 920.573757 270.284112 951.147006"></polygon>
                    <path d="M210,959.286879 L149.715888,951.147006 L76.4731797,911.120359 L67.1921711,856.017884 L77.7699148,800.862416 L125.80421,757.379702 L87.2981161,478.088357 L50.5698665,432.585443 L26.4533246,372.63611 L0.351466137,322.062265 L50.5698665,156.060598 L39.6689327,32.2974968 L50.5698665,15.4259355 L84.8789868,0 L118.601591,16.1487484 L134.927299,118.842426 L210,115.234615 L285.072701,118.842426 L301.398409,16.1487484 L335.121013,0 L369.430134,15.4259355 L380.331067,32.2974968 L369.430134,156.060598 L419.648534,322.062265 L393.546675,372.63611 L369.430134,432.585443 L332.701884,478.088357 L294.19579,757.379702 L342.230085,800.862416 L352.807829,856.017884 L343.52682,911.120359 L270.284112,951.147006 L210,959.286879 Z" id="Combined-Shape" fill="#7BC7D1"></path>
                    <polygon id="side" fill="#E6ECF2" points="419.648534 322.062265 469.383576 368.699894 481.571649 454.13546 432.410957 492.518152 380.620646 578.143134 342.079579 800.862416 294.19579 757.379702 332.701884 478.088357 369.430134 432.585443 393.546675 372.63611"></polygon>
                    <polygon id="ear" fill="#E6ECF2" points="403.676097 269.420014 419.648534 322.062265 468.394046 368.837798 551.416225 361.165558 643.273366 247.765199 671.978231 171.578087 675 131.988766 604.593605 115.234615 471.275239 148.021128"></polygon>
                    <g id="eye" transform="translate(394.581648, 397.092194)">
                        <polygon id="Path-20" fill="#242424" points="78.861427 0.0551644956 86.9900013 57.0432651 11.7478474 21.5350443"></polygon>
                        <polygon id="Path-21" fill="#000000" points="86.9900013 57.0432651 37.8293094 95.4259571 11.7478474 21.5350443"></polygon>
                        <polygon id="Path-22" fill="#313131" points="37.8293094 95.4259571 9.09494702e-13 74.48306 11.7478474 21.5350443"></polygon>
                    </g>
                    <polygon id="nose" fill="#232323" points="265.217801 774.045623 296.404857 800.945246 254.020059 817.459476 243.613014 791.990635"></polygon>
                </g>
                <g id="Longneck-head-right" transform="translate(232.500000, 558.000000) scale(-1, 1) translate(-232.500000, -558.000000) translate(0.000000, 115.000000)">
                    <polygon id="mouth" fill="#E6ECF2" points="9.76767774e-13 844.286879 8.19844426e-13 886 60.2841118 872.85765 115.382845 805.573757 60.2841118 836.147006"></polygon>
                    <polygon id="side" fill="#E6ECF2" points="209.648534 207.062265 259.383576 253.699894 271.571649 339.13546 222.410957 377.518152 170.620646 463.143134 132.079579 685.862416 84.1957896 642.379702 122.701884 363.088357 159.430134 317.585443 183.546675 257.63611"></polygon>
                    <polygon id="ear" fill="#E6ECF2" points="193.676097 154.420014 209.648534 207.062265 258.394046 253.837798 341.416225 246.165558 433.273366 132.765199 461.978231 56.5780873 465 16.9887664 394.593605 0.234614659 261.275239 33.021128"></polygon>
                    <g id="eye" transform="translate(184.581648, 282.092194)">
                        <polygon id="Path-20" fill="#242424" points="78.861427 0.0551644956 86.9900013 57.0432651 11.7478474 21.5350443"></polygon>
                        <polygon id="Path-21" fill="#000000" points="86.9900013 57.0432651 37.8293094 95.4259571 11.7478474 21.5350443"></polygon>
                        <polygon id="Path-22" fill="#313131" points="37.8293094 95.4259571 9.09494702e-13 74.48306 11.7478474 21.5350443"></polygon>
                    </g>
                    <polygon id="nose" fill="#232323" points="55.2178007 659.045623 86.4048566 685.945246 44.0200594 702.459476 33.6130137 676.990635"></polygon>
                </g>
            </g>
            <text id="LongneckMedia" font-family="Quicksand-Light_Bold, Quicksand" font-size="300" font-weight="bold" fill="#292828">
                <tspan x="1089" y="585">LONGNECK</tspan>
                <tspan x="2688.3" y="585" font-family="Quicksand-Light_Regular, Quicksand" font-weight="normal">MEDIA</tspan>
            </text>
        </g>
    </g>
</svg>