<svg xmlns="http://www.w3.org/2000/svg" viewBox="0 0 260 50">
  <g fill="none" fill-rule="evenodd">
    <path fill="#303C6C" d="M0 0h260v50H0z"/>
    <path fill="#FFF" fill-rule="nonzero" d="M8 41.438v-32h6.766v26.421h13.718v5.578H8zm53.125-16c0 3.49-.659 6.458-1.977 8.906-1.317 2.448-3.109 4.315-5.375 5.601-2.265 1.287-4.81 1.93-7.632 1.93-2.844 0-5.396-.646-7.657-1.938-2.26-1.291-4.046-3.16-5.359-5.609-1.313-2.448-1.969-5.411-1.969-8.89 0-3.49.656-6.459 1.969-8.907 1.313-2.448 3.099-4.315 5.36-5.601C40.744 9.643 43.296 9 46.14 9c2.823 0 5.367.643 7.632 1.93 2.266 1.286 4.058 3.153 5.375 5.601 1.318 2.448 1.977 5.417 1.977 8.907zm-6.86 0c0-2.26-.335-4.167-1.007-5.72-.672-1.551-1.617-2.728-2.836-3.53-1.219-.803-2.646-1.204-4.281-1.204-1.636 0-3.063.401-4.282 1.204-1.218.802-2.164 1.979-2.836 3.53-.671 1.553-1.007 3.46-1.007 5.72s.336 4.166 1.007 5.718c.672 1.552 1.618 2.73 2.836 3.532 1.22.802 2.646 1.203 4.282 1.203 1.635 0 3.062-.401 4.28-1.203 1.22-.803 2.165-1.98 2.837-3.532.672-1.552 1.008-3.458 1.008-5.718zm38.626-16v32h-5.844L73.125 21.297h-.234v20.14h-6.766v-32h5.938l13.812 20.126h.281V9.438h6.735zm27.45 19.968h-6.872v-5.093h13.39v4.03c0 2.813-.593 5.227-1.78 7.243a12.072 12.072 0 01-4.907 4.656c-2.083 1.089-4.469 1.633-7.156 1.633-3 0-5.636-.664-7.907-1.992-2.27-1.328-4.039-3.219-5.304-5.672-1.266-2.453-1.899-5.367-1.899-8.742 0-2.594.378-4.91 1.133-6.946.755-2.036 1.815-3.763 3.18-5.18a13.773 13.773 0 014.765-3.234C108.797 9.37 110.76 9 112.875 9c1.813 0 3.5.263 5.063.79 1.562.525 2.95 1.267 4.164 2.226a12.107 12.107 0 012.976 3.414 11.697 11.697 0 011.484 4.351h-6.874a7.13 7.13 0 00-.922-2.023 5.91 5.91 0 00-1.446-1.5 6.452 6.452 0 00-1.937-.945c-.724-.22-1.524-.329-2.399-.329-1.635 0-3.07.407-4.304 1.22-1.235.812-2.196 1.991-2.883 3.538-.688 1.547-1.031 3.435-1.031 5.664 0 2.23.338 4.125 1.015 5.688.677 1.562 1.636 2.752 2.875 3.57 1.24.818 2.703 1.227 4.39 1.227 1.532 0 2.842-.274 3.93-.82 1.09-.548 1.922-1.321 2.5-2.321.55-.95.838-2.065.866-3.344zm38.362-19.968v32h-5.844l-13.922-20.141h-.234v20.14h-6.766v-32h5.938l13.813 20.126h.28V9.438h6.735zm5.578 32v-32h21.563v5.578h-14.797v7.625h13.687v5.578h-13.687v7.64h14.86v5.578H164.28zM219.47 20.64h-6.844c-.125-.886-.38-1.675-.766-2.368a6.036 6.036 0 00-1.484-1.773 6.548 6.548 0 00-2.086-1.125 8.08 8.08 0 00-2.555-.39c-1.656 0-3.099.408-4.328 1.226-1.229.818-2.182 2.005-2.86 3.562-.676 1.558-1.015 3.446-1.015 5.665 0 2.28.341 4.197 1.024 5.75.682 1.552 1.638 2.723 2.867 3.515 1.229.792 2.65 1.188 4.266 1.188.906 0 1.747-.12 2.523-.36a6.533 6.533 0 002.07-1.054 6.037 6.037 0 001.508-1.696c.401-.666.68-1.427.836-2.281l6.844.031a12.403 12.403 0 01-1.32 4.242 12.814 12.814 0 01-2.829 3.641c-1.182 1.068-2.588 1.912-4.218 2.531-1.63.62-3.472.93-5.524.93-2.854 0-5.404-.646-7.648-1.938-2.245-1.291-4.016-3.16-5.313-5.609-1.297-2.448-1.945-5.411-1.945-8.89 0-3.49.656-6.459 1.969-8.907 1.312-2.448 3.093-4.315 5.343-5.601 2.25-1.287 4.782-1.93 7.594-1.93 1.854 0 3.576.26 5.164.781 1.589.521 2.998 1.279 4.227 2.274 1.229.994 2.232 2.21 3.008 3.648.776 1.438 1.273 3.083 1.492 4.938zm4.86 20.797v-32h6.765v14.109h.422l11.515-14.11h8.11l-11.875 14.329 12.015 17.672h-8.094l-8.765-13.157-3.328 4.063v9.093h-6.766z"/>
  </g>
</svg>
